<?xml version="1.0" encoding="utf-8"?>
<!-- Generator: Adobe Illustrator 25.0.1, SVG Export Plug-In . SVG Version: 6.00 Build 0)  -->
<svg version="1.1" id="Layer_1" xmlns="http://www.w3.org/2000/svg" xmlns:xlink="http://www.w3.org/1999/xlink" x="0px" y="0px"
	 viewBox="0 0 612 137.8" style="enable-background:new 0 0 612 137.8;" xml:space="preserve">
<style type="text/css">
	.st0{fill:#F8E9D1;}
</style>
<g>
	<path class="st0" d="M187.5,51.3c3.1-1.6,6.6-2,9.9-1c1.9,0.5,3.6,1.4,5.4,2.2c0.6,0.3,1.2,0.5,1.8,0.8c2.2,0.9,4.5,1.5,7,1.2
		c4.2-0.5,7.6-2.9,10.6-5.7c1.9-1.5,3.9-3,6-4.2c4.1-2.4,8.9-4.4,13.8-4c2.7,0.2,5.3,0.9,7.7,2c0.2,0.1,0.3,0.2,0.5,0.3
		c-0.6-0.2-1.3-0.5-1.9-0.6c-3.1-0.8-6.5-0.8-9.6,0.3c-1.5,0.6-2.8,1.4-3.9,2.5c-0.6,0.6-1.5,1.4-1.7,2.2c0,0.2,0,0.3,0,0.4
		c0.1,0.6,1.2,0.5,1.7,0.1c0.4-0.3,0.8-0.7,1.1-1.1c3.8-4.2,10-5.3,15-2.8c2.3,1.1,4.4,2.9,6.7,4.1c0.4,0.2,0.9,0.4,1.4,0.6
		c0,0,0.1,0,0.1,0c0.1,0,0.3,0.1,0.5,0.1c0.2,0.1,0.5,0.1,0.8,0.2c-1.9,0.3-4.1,0-5.8-0.9c-1.9-1-3.6-2.3-5.6-3.1
		c-1.1-0.5-2.4-1.1-3.6-1c-0.4,0-1.3,0.1-1.4,0.6c-0.1,0.6,0.7,0.5,1.1,0.6c3.2,0.7,6.3,1.9,9.2,3.4c0.5,0.3,1,0.5,1.5,0.7
		c-0.2-0.1-0.5-0.1-0.7-0.2c-2.2-0.8-4.4-1.9-6.4-2.5c-0.5-0.1-1-0.2-1.5-0.3c-1.6-0.2-3.3-0.2-4.8,0.4c-0.7,0.3-1.4,0.7-1.9,1.3
		c-0.4,0.4-1,1-1.1,1.6c0,0.1,0,0.3,0,0.4c0.1,0.2,0.3,0.4,0.6,0.2c0.2-0.2,0.4-0.3,0.6-0.5c0.4-0.3,0.9-0.6,1.3-0.8
		c0.9-0.5,1.8-0.8,2.8-1c2-0.4,4.1-0.2,6,0.3c2.9,0.8,5.5,2.2,8.6,2c1.6-0.1,3.1-0.6,4.4-1.4c0,0,0.1,0,0.1,0c0.1,0,0.1-0.1,0.2-0.1
		c0.9-0.6,1.6-1.3,2.2-2.2c1.2-1.8,1.4-4.1,0.8-6.1c-0.3-1-0.8-2-1.4-2.8c-0.6-0.8-1.4-2.2-2.6-2c-1.1,0.1-1.5,1.6-0.7,2.3
		c0.4,0.4,1,0.7,1.4,1.1c0.5,0.4,0.9,1,1.2,1.5c0.7,1.2,1,2.6,0.7,3.9c-0.2,1.1-0.6,2-1.2,2.8c0.1-0.2,0.1-0.5,0.2-0.7
		c0.2-0.5,0.3-1,0.3-1.5c0-1.5-0.9-2.9-2.2-3.6c-0.7-0.4-2.2-0.9-2.9-0.3c-0.6,0.6-0.1,1.5,0.6,1.6c0.9,0.2,1.7,0.4,2.5,1
		c0.8,0.7,1.2,1.9,1,3c-0.7,1.3-1.9,1.8-3.2,1.8c-0.5-0.1-1.1-0.3-1.6-0.6c-2.4-1.2-4.4-3.3-6.7-4.7c-6-3.5-13.4-4.1-19.9-1.8
		c-3.9,1.4-7.3,4.1-10.5,6.5c-3.5,2.6-8.8,6.3-13.1,3.2c-0.4-0.3-0.9-0.8-1.2-1.4c-0.4-0.7-0.4-2.2,0.5-2.6c0.5-0.2,1.1-0.1,1.4,0.3
		c0.2,0.3,0.1,0.7,0.2,1c0.1,0.3,0.2,0.5,0.4,0.7c1.4,1.1,2.7-0.6,2.5-2c-0.4-2.1-2.8-2.2-4.3-1.2c-0.3,0.2-0.5,0.4-0.8,0.6
		c-1.2,1.2-1.5,3-0.9,4.5c0.7,1.7,2.1,2.5,3.6,2.9c-0.5,0-1.1,0-1.6-0.1c-2.9-0.3-5.5-1.7-8.1-3c-4-2-9.9-4-13.2,0.3
		C187,51.1,187.3,51.4,187.5,51.3z"/>
	<path class="st0" d="M401,50.9c-3.3-4.4-9.2-2.4-13.2-0.3c-2.6,1.3-5.1,2.7-8.1,3c-0.5,0.1-1.1,0.1-1.6,0.1
		c1.6-0.3,2.9-1.2,3.6-2.9c0.6-1.5,0.3-3.3-0.9-4.5c-0.2-0.2-0.5-0.4-0.8-0.6c-1.5-0.9-3.9-0.8-4.3,1.2c-0.3,1.4,1.1,3,2.5,2
		c0.2-0.2,0.4-0.4,0.5-0.7c0.1-0.3,0-0.7,0.2-1c0.3-0.4,0.9-0.6,1.4-0.3c0.8,0.4,0.9,1.9,0.5,2.6c-0.3,0.6-0.8,1.1-1.2,1.4
		c-4.3,3.1-9.6-0.6-13.1-3.2c-3.2-2.4-6.6-5.1-10.5-6.5c-6.5-2.4-13.9-1.7-19.9,1.8c-2.4,1.4-4.3,3.5-6.7,4.7
		c-0.5,0.2-1,0.5-1.6,0.6c-1.3,0-2.5-0.6-3.2-1.8c-0.2-1.1,0.2-2.3,1-3c0.7-0.6,1.5-0.8,2.5-1c0.7-0.2,1.2-1.1,0.6-1.6
		c-0.7-0.7-2.2-0.1-2.9,0.3c-1.3,0.7-2.2,2.1-2.2,3.6c0,0.5,0.1,1,0.3,1.5c0,0.3,0.1,0.5,0.2,0.7c-0.6-0.7-1.1-1.7-1.2-2.8
		c-0.2-1.3,0.1-2.7,0.7-3.9c0.3-0.6,0.8-1.1,1.2-1.5c0.5-0.4,1-0.7,1.4-1.1c0.8-0.7,0.4-2.2-0.7-2.3c-1.2-0.1-2,1.2-2.6,2
		c-0.7,0.8-1.1,1.8-1.4,2.8c-0.6,2.1-0.3,4.3,0.8,6.1c0.6,0.9,1.4,1.7,2.2,2.2c0,0.1,0.1,0.1,0.2,0.1c0,0,0.1,0,0.1,0
		c1.3,0.8,2.8,1.3,4.4,1.4c3.1,0.2,5.7-1.2,8.6-2c1.9-0.6,4-0.7,6-0.3c1,0.2,1.9,0.5,2.8,1c0.5,0.2,0.9,0.5,1.3,0.8
		c0.2,0.2,0.4,0.4,0.6,0.5c0.3,0.2,0.5,0.1,0.6-0.2c0-0.1,0-0.2,0-0.4c-0.1-0.6-0.7-1.2-1.1-1.6c-0.5-0.6-1.2-1-2-1.3
		c-1.5-0.6-3.2-0.7-4.8-0.4c-0.5,0.1-1,0.2-1.5,0.3c-2,0.6-4.2,1.7-6.5,2.5c-0.2,0.1-0.5,0.2-0.7,0.2c0.5-0.2,1-0.5,1.5-0.7
		c2.9-1.5,6-2.7,9.2-3.4c0.3-0.1,1.2,0,1.1-0.6c-0.1-0.5-1-0.6-1.4-0.6c-1.3,0-2.5,0.6-3.6,1c-2,0.8-3.7,2.1-5.6,3.1
		c-1.7,0.9-3.9,1.3-5.8,0.9c0.3,0,0.5-0.1,0.8-0.2c0.1,0,0.3-0.1,0.5-0.1c0,0,0.1,0,0.1,0c0.5-0.1,0.9-0.3,1.4-0.6
		c2.3-1.2,4.4-3,6.7-4.1c5.1-2.5,11.2-1.4,15,2.8c0.4,0.4,0.7,0.8,1.1,1.1c0.5,0.3,1.6,0.5,1.7-0.1c0-0.1,0-0.3,0-0.4
		c-0.2-0.8-1.1-1.6-1.7-2.2c-1.1-1.1-2.4-2-3.9-2.5c-3-1.2-6.5-1.2-9.6-0.3c-0.7,0.2-1.3,0.4-2,0.6c0.2-0.1,0.3-0.2,0.5-0.3
		c2.4-1.1,5.1-1.8,7.7-2c4.9-0.4,9.7,1.6,13.8,4c2.1,1.2,4,2.7,6,4.2c3,2.8,6.4,5.2,10.6,5.7c2.5,0.3,4.8-0.3,7-1.2
		c0.6-0.2,1.2-0.5,1.8-0.8c1.8-0.8,3.6-1.6,5.4-2.2c3.3-1,6.9-0.6,9.9,1C400.9,51.4,401.2,51.1,401,50.9z"/>
</g>
<g>
	<path class="st0" d="M285,31.8c0.3,0,0.5,0.3,0.6,0.9s0.2,1.1,0.2,1.6s-0.1,0.7-0.5,0.7c-0.1,0-0.2,0-0.3-0.1s-0.2-0.3-0.4-0.8
		c-0.1-0.4-0.4-0.7-0.7-0.9c-0.3-0.2-0.6-0.2-1-0.2c-0.5,0-0.9,0.1-1.1,0.4c-0.2,0.2-0.3,0.7-0.3,1.2v12.8c0,0.2,0,0.4,0.2,0.5
		c0.1,0.2,0.3,0.3,0.7,0.4c0.4,0.1,0.6,0.2,0.6,0.3c0.1,0.1,0.1,0.2,0.1,0.3c0,0.4-0.2,0.6-0.6,0.6c-0.2,0-0.6,0-1-0.1
		c-0.4-0.1-0.8-0.1-1-0.1c-0.2,0-0.5,0-0.9,0.1c-0.4,0.1-0.7,0.1-0.9,0.1c-0.2,0-0.4-0.1-0.6-0.2c-0.2-0.1-0.2-0.3-0.2-0.5
		c0-0.1,0-0.2,0.1-0.3c0.1-0.1,0.3-0.2,0.6-0.3s0.6-0.3,0.7-0.5c0.1-0.2,0.2-0.5,0.2-0.8v-13c0-0.8-0.5-1.2-1.5-1.2
		c-0.6,0-1.1,0.2-1.4,0.5c-0.2,0.2-0.3,0.5-0.4,0.8c-0.1,0.4-0.1,0.6-0.2,0.7c-0.1,0.1-0.2,0.1-0.3,0.1c-0.1,0-0.2,0-0.4-0.1
		c-0.1-0.1-0.2-0.2-0.2-0.3c0-0.9,0.1-1.6,0.2-2.1c0.1-0.5,0.4-0.7,0.6-0.7C276.2,31.8,285,31.8,285,31.8z"/>
	<path class="st0" d="M290.4,47.6c0,0.2,0.1,0.4,0.2,0.5c0.1,0.2,0.4,0.3,0.7,0.4s0.6,0.2,0.6,0.3c0.1,0.1,0.1,0.2,0.1,0.3
		c0,0.1-0.1,0.2-0.2,0.3c-0.1,0.1-0.3,0.1-0.5,0.1c-0.2,0-0.5,0-0.9-0.1c-0.4-0.1-0.7-0.1-0.8-0.1c-0.2,0-0.5,0-0.9,0.1
		c-0.4,0-0.6,0.1-0.8,0.1c-0.5,0-0.7-0.1-0.7-0.4c0-0.2,0-0.3,0.1-0.3s0.2-0.1,0.5-0.1c0.2,0,0.4-0.1,0.6-0.2s0.2-0.4,0.2-0.8v-10
		c0-0.2,0-0.4-0.1-0.6c-0.1-0.2-0.3-0.3-0.7-0.4c-0.3-0.1-0.5-0.2-0.6-0.2c-0.1-0.1-0.1-0.2-0.1-0.3c0-0.1,0-0.2,0.1-0.2
		c0.1-0.1,0.2-0.1,0.4-0.1c0.3,0,0.6,0,1,0.1c0.4,0,0.7,0.1,0.9,0.1s0.5,0,0.9-0.1s0.7-0.1,1-0.1c0.3,0,0.5,0.1,0.5,0.4
		c0,0.2,0,0.3-0.1,0.3s-0.2,0.1-0.5,0.2c-0.2,0-0.4,0.1-0.6,0.3s-0.2,0.4-0.2,0.9L290.4,47.6L290.4,47.6z M299.2,47.6
		c0,0.2,0.1,0.4,0.2,0.6c0.1,0.2,0.4,0.3,0.7,0.4s0.6,0.2,0.6,0.2c0.1,0.1,0.1,0.2,0.1,0.3c0,0.1-0.1,0.2-0.2,0.3
		c-0.1,0.1-0.3,0.1-0.5,0.1c-0.2,0-0.5,0-0.9-0.1c-0.4-0.1-0.7-0.1-0.8-0.1c-0.2,0-0.5,0-0.9,0.1c-0.4,0-0.6,0.1-0.8,0.1
		c-0.5,0-0.7-0.1-0.7-0.4c0-0.2,0-0.3,0.1-0.3s0.2-0.1,0.5-0.1c0.2,0,0.4-0.1,0.6-0.2s0.2-0.4,0.2-0.8v-5.7c0-0.2-0.1-0.4-0.2-0.5
		c-0.1-0.1-0.4-0.2-0.9-0.2h-4.5c-0.4,0-0.6,0-0.7-0.1c-0.1-0.1-0.2-0.2-0.2-0.3s0.1-0.3,0.2-0.3c0.1-0.1,0.4-0.1,0.8-0.1h4.9
		c0.3,0,0.4,0,0.5-0.1c0.1-0.1,0.1-0.2,0.1-0.5c0-1.4,0-2.2-0.1-2.5c0-0.3-0.3-0.5-0.9-0.6c-0.3-0.1-0.5-0.2-0.5-0.2
		c-0.1-0.1-0.1-0.2-0.1-0.3c0-0.1,0-0.2,0.1-0.2c0.1-0.1,0.2-0.1,0.4-0.1c0.3,0,0.6,0,1,0.1c0.4,0,0.7,0.1,0.9,0.1s0.5,0,0.9-0.1
		s0.7-0.1,1-0.1c0.3,0,0.5,0.1,0.5,0.4c0,0.2,0,0.3-0.1,0.3s-0.2,0.1-0.5,0.1c-0.2,0-0.4,0.1-0.6,0.3s-0.2,0.4-0.2,0.9L299.2,47.6
		L299.2,47.6z"/>
	<path class="st0" d="M310.5,48.5c0.4,0,0.6-0.1,0.8-0.2s0.3-0.4,0.3-0.7c0-0.2,0.1-0.4,0.2-0.6s0.2-0.2,0.4-0.2s0.3,0.1,0.4,0.2
		s0.2,0.3,0.2,0.5c0,0.2,0,0.5,0,0.7c0,0.3,0,0.4,0,0.5c0,0.3,0,0.4-0.1,0.5c-0.1,0.1-0.3,0.1-0.6,0.1h-8.3c-0.6,0-1,0-1.2-0.1
		c-0.2-0.1-0.3-0.2-0.3-0.4c0-0.3,0.2-0.4,0.6-0.4c0.5,0,0.8-0.1,1-0.2c0.1-0.2,0.2-0.4,0.2-0.7V39c0-0.9,0-1.6,0-1.9
		s-0.1-0.5-0.3-0.6c-0.1-0.1-0.4-0.1-0.8-0.1c-0.2,0-0.4,0-0.6-0.1s-0.2-0.2-0.2-0.3c0-0.1,0.1-0.2,0.2-0.3s0.3-0.1,0.4-0.1h7.9
		c0.3,0,0.5,0.1,0.6,0.2s0.2,0.3,0.2,0.5c0,0.2,0.1,0.6,0.1,1.2c0,0.2-0.1,0.4-0.3,0.4c-0.1,0-0.2,0-0.4-0.1s-0.2-0.3-0.3-0.5
		c-0.1-0.3-0.2-0.5-0.4-0.6c-0.1-0.1-0.3-0.1-0.4-0.1h-2.8c-0.5,0-0.8,0.1-0.9,0.2c-0.1,0.1-0.2,0.3-0.2,0.6v2
		c0,0.5,0.1,0.8,0.2,0.9c0.1,0.2,0.4,0.2,0.8,0.2h2.8c0.2,0,0.4-0.1,0.5-0.2s0.2-0.4,0.2-0.6c0-0.1,0-0.2,0.1-0.3
		c0.1-0.1,0.2-0.1,0.3-0.1c0.1,0,0.2,0,0.3,0.1c0.1,0.1,0.1,0.2,0.1,0.3c0,0.1,0,0.3-0.1,0.6c0,0.2-0.1,0.5-0.1,0.6
		c0,0.2,0,0.5,0.1,0.8c0.1,0.3,0.1,0.4,0.1,0.5c0,0.2,0,0.3-0.1,0.4s-0.2,0.1-0.4,0.1c-0.1,0-0.3-0.1-0.4-0.2
		c-0.1-0.1-0.1-0.3-0.1-0.5c0-0.2-0.1-0.4-0.2-0.5c-0.1-0.1-0.4-0.2-0.7-0.2h-2.7c-0.2,0-0.5,0-0.6,0.1c-0.2,0.1-0.2,0.2-0.2,0.4
		v6.1c0,0.3,0.1,0.5,0.3,0.6c0.2,0.1,0.5,0.2,0.9,0.2L310.5,48.5L310.5,48.5z"/>
</g>
<g>
	<path class="st0" d="M168.6,59c0.4,0,0.6,0.1,0.7,0.2s0.2,0.3,0.2,0.7c0.1,0.3,0.1,0.7,0.2,1c0.1,0.3,0.1,0.6,0.1,0.8
		c0,0.6-0.2,1-0.7,1c-0.1,0-0.2,0-0.3-0.2c-0.1-0.1-0.2-0.4-0.4-0.9c-0.2-0.5-0.3-0.8-0.5-1s-0.3-0.2-0.5-0.2h-4.1
		c-0.7,0-1.2,0.1-1.4,0.3c-0.2,0.2-0.3,0.5-0.3,0.9V65c0,0.7,0.1,1.2,0.3,1.5s0.6,0.4,1.4,0.4h3.9c0.3,0,0.6-0.1,0.7-0.4
		s0.2-0.6,0.2-1c0-0.2,0.1-0.3,0.2-0.4s0.2-0.2,0.4-0.2c0.2,0,0.3,0.1,0.4,0.2s0.2,0.3,0.2,0.5c0,0.2,0,0.5,0,1s0,0.8,0,1
		c0,0.4,0,0.8,0.1,1.3s0.1,0.7,0.1,0.8c0,0.2-0.1,0.4-0.2,0.6s-0.2,0.2-0.4,0.2c-0.2,0-0.3-0.1-0.4-0.3c-0.1-0.2-0.2-0.4-0.2-0.8
		c0-0.8-0.4-1.1-1.3-1.1h-3.9c-0.5,0-0.8,0.1-1,0.2c-0.2,0.2-0.2,0.4-0.2,0.7v9.4c0,0.4,0.1,0.8,0.3,1.1c0.2,0.3,0.6,0.6,1.2,0.7
		c0.6,0.2,1,0.3,1.1,0.5c0.1,0.2,0.2,0.3,0.2,0.5c0,0.4-0.2,0.6-0.6,0.6c-0.2,0-0.6-0.1-1.1-0.2c-0.6-0.2-1.1-0.2-1.6-0.2
		c-0.9,0-1.7,0.1-2.3,0.3c-0.6,0.2-1,0.3-1.2,0.3c-0.6,0-0.9-0.3-0.9-0.8c0-0.1,0.1-0.3,0.2-0.4c0.1-0.1,0.4-0.2,0.9-0.4
		s0.9-0.3,1-0.6s0.3-0.5,0.3-0.8V64.7c0-1.5,0-2.5-0.1-3c-0.1-0.5-0.2-0.9-0.4-1s-0.6-0.2-1.1-0.2c-0.4,0-0.6-0.1-0.8-0.2
		s-0.3-0.3-0.3-0.5c0-0.2,0.1-0.4,0.2-0.5s0.4-0.2,0.6-0.2L168.6,59L168.6,59z"/>
	<path class="st0" d="M175.4,64.2c0-0.7-0.5-1.1-1.6-1.1c-0.7,0-1.1-0.2-1.1-0.6c0-0.4,0.4-0.6,1.2-0.6c0.4,0,0.8,0,1.3,0.1
		c0.5,0.1,0.9,0.1,1.2,0.1c0.2,0,0.8-0.1,1.8-0.2c1-0.1,1.8-0.2,2.3-0.2c2.1,0,3.7,0.5,5,1.5s1.9,2.2,1.9,3.8c0,1-0.3,1.8-1,2.5
		s-1.7,1.2-3.3,1.8c-0.3,0.1-0.4,0.2-0.4,0.3c0,0.1,0.1,0.2,0.2,0.4c0.6,0.7,1.6,2.3,3.1,4.7s2.3,3.7,2.4,3.8
		c0.1,0.1,0.4,0.2,0.8,0.4c0.4,0.1,0.7,0.3,0.8,0.4c0.1,0.1,0.2,0.3,0.2,0.4c0,0.2-0.1,0.4-0.4,0.5s-0.5,0.2-0.7,0.2
		c-0.5,0-1-0.2-1.7-0.5c-0.7-0.3-1.1-0.6-1.3-0.8c-0.4-0.5-1.7-2.3-3.8-5.6c-1-1.5-1.6-2.4-1.8-2.6c-0.5-0.7-1.1-1.2-1.6-1.4
		c-0.1-0.1-0.2-0.1-0.3-0.2s-0.1-0.2-0.1-0.3c0-0.4,0.3-0.6,0.8-0.6c0.1,0,0.2,0,0.4,0.1c0.2,0,0.5,0.1,0.7,0.1c1.1,0,2-0.3,2.8-1
		c0.7-0.7,1.1-1.6,1.1-2.8c0-0.8-0.4-1.7-1.2-2.5s-2-1.2-3.5-1.2c-0.6,0-1,0.1-1.2,0.2c-0.3,0.1-0.4,0.3-0.5,0.4
		c-0.1,0.2-0.1,0.4-0.1,0.7v15.5c0,0.3,0.1,0.6,0.4,0.7c0.3,0.2,0.7,0.3,1.1,0.3c0.5,0,0.8,0.1,1,0.2s0.3,0.3,0.3,0.5
		c0,0.2-0.1,0.4-0.3,0.6c-0.2,0.2-0.5,0.2-1,0.2c-0.4,0-0.9-0.1-1.4-0.3c-0.6-0.2-1-0.3-1.3-0.3c-0.3,0-0.7,0.1-1.3,0.3
		c-0.6,0.2-1,0.3-1.3,0.3c-0.9,0-1.4-0.3-1.4-0.8c0-0.2,0.1-0.3,0.2-0.4s0.5-0.1,1.1-0.1c0.4,0,0.6-0.1,0.9-0.2s0.3-0.3,0.3-0.5
		L175.4,64.2L175.4,64.2z"/>
	<path class="st0" d="M205.8,80.8c0.5,0,0.9-0.1,1.2-0.4s0.4-0.6,0.4-0.9c0-0.3,0.1-0.6,0.3-0.8c0.2-0.2,0.4-0.3,0.6-0.3
		c0.2,0,0.4,0.1,0.6,0.3s0.2,0.4,0.2,0.8c0,0.3,0,0.7,0.1,1.1c0,0.4,0.1,0.6,0.1,0.8c0,0.4-0.1,0.6-0.2,0.7
		c-0.1,0.1-0.4,0.2-0.9,0.2h-12.2c-0.9,0-1.4-0.1-1.8-0.2c-0.3-0.1-0.5-0.3-0.5-0.5c0-0.4,0.3-0.6,0.9-0.6c0.7,0,1.2-0.1,1.4-0.3
		c0.2-0.2,0.3-0.6,0.3-1V66.9c0-1.4,0-2.3-0.1-2.7c-0.1-0.4-0.2-0.7-0.4-0.8c-0.2-0.1-0.6-0.2-1.2-0.2c-0.4,0-0.6-0.1-0.8-0.2
		c-0.2-0.1-0.3-0.3-0.3-0.5c0-0.2,0.1-0.3,0.3-0.5s0.4-0.2,0.6-0.2H206c0.5,0,0.8,0.1,0.9,0.3c0.1,0.2,0.2,0.4,0.3,0.8
		c0.1,0.3,0.1,0.9,0.1,1.7c0,0.4-0.2,0.5-0.5,0.5c-0.2,0-0.4-0.1-0.5-0.2c-0.1-0.1-0.3-0.4-0.5-0.8c-0.2-0.4-0.4-0.7-0.5-0.8
		c-0.2-0.1-0.4-0.2-0.6-0.2h-4.1c-0.7,0-1.1,0.1-1.3,0.3s-0.3,0.5-0.3,0.8v2.9c0,0.7,0.1,1.1,0.3,1.3c0.2,0.2,0.6,0.3,1.2,0.3h4
		c0.3,0,0.6-0.1,0.8-0.4c0.2-0.2,0.3-0.5,0.3-0.8c0-0.2,0.1-0.3,0.2-0.4c0.1-0.1,0.3-0.2,0.5-0.2c0.2,0,0.4,0.1,0.5,0.2
		s0.2,0.3,0.2,0.5c0,0.2,0,0.5-0.1,0.8s-0.1,0.7-0.1,0.9c0,0.3,0,0.7,0.1,1.1c0.1,0.4,0.1,0.6,0.1,0.7c0,0.2-0.1,0.4-0.2,0.5
		c-0.1,0.1-0.3,0.2-0.5,0.2c-0.2,0-0.4-0.1-0.5-0.3c-0.1-0.2-0.2-0.4-0.2-0.7c0-0.3-0.1-0.6-0.3-0.8s-0.5-0.2-1-0.2h-4
		c-0.4,0-0.7,0.1-0.9,0.2s-0.4,0.3-0.4,0.6v8.8c0,0.5,0.1,0.8,0.4,0.9c0.3,0.2,0.7,0.2,1.3,0.2L205.8,80.8L205.8,80.8z"/>
	<path class="st0" d="M228.7,64.5c0-0.4-0.1-0.7-0.4-0.9s-0.6-0.3-1.1-0.3c-0.3,0-0.6,0-0.8-0.2s-0.3-0.2-0.3-0.4
		c0-0.2,0.1-0.4,0.3-0.5c0.2-0.1,0.4-0.2,0.6-0.2c0.1,0,0.5,0.1,1.2,0.2s1.2,0.2,1.4,0.2c0.3,0,0.7,0,1.2-0.1
		c0.5-0.1,0.9-0.1,1.1-0.1c0.6,0,0.9,0.2,0.9,0.7c0,0.4-0.3,0.5-0.9,0.5c-0.5,0-0.9,0.1-1.1,0.2c-0.2,0.2-0.4,0.3-0.4,0.5
		c-0.1,0.2-0.1,0.5-0.1,0.8v13.8c0,0.9,0.1,1.6,0.3,2.1s0.3,0.9,0.3,1.2c0,0.3-0.1,0.4-0.4,0.4c-0.2,0-0.3,0-0.4-0.1
		c-0.1-0.1-0.2-0.2-0.4-0.5L217,66.5c-0.1-0.2-0.2-0.2-0.4-0.2c-0.1,0-0.2,0.2-0.2,0.5v12.8c0,0.4,0.2,0.7,0.5,0.9
		c0.4,0.2,0.7,0.3,1,0.3c0.8,0,1.2,0.2,1.2,0.7c0,0.2-0.1,0.3-0.1,0.4c-0.1,0.1-0.3,0.1-0.6,0.1c-0.3,0-0.8,0-1.4-0.1
		s-1.1-0.1-1.2-0.1c-0.3,0-0.7,0-1.3,0.1c-0.6,0.1-1,0.1-1.2,0.1c-0.5,0-0.8-0.2-0.8-0.7c0-0.4,0.3-0.6,0.9-0.6
		c0.5,0,0.9-0.1,1.2-0.4c0.3-0.2,0.4-0.6,0.4-1.1V64.7c0-0.4-0.1-0.8-0.4-1.1s-0.6-0.4-0.9-0.4c-0.5,0-0.9,0-1-0.2
		c-0.2-0.1-0.3-0.3-0.3-0.5c0-0.4,0.3-0.6,0.8-0.6c0.1,0,0.3,0,0.7,0.1c0.4,0,0.7,0.1,0.9,0.1c0.2,0,0.4,0,0.6-0.1
		c0.2,0,0.4-0.1,0.6-0.1c0.3,0,0.6,0.2,1.1,0.7c0.4,0.4,1.9,2.2,4.4,5.2l6.6,8.2c0.1,0.1,0.2,0.2,0.3,0.2c0.2,0,0.3-0.2,0.3-0.8
		L228.7,64.5L228.7,64.5z"/>
	<path class="st0" d="M255.8,77.7c0.1,0,0.3,0.1,0.4,0.2c0.1,0.1,0.2,0.2,0.2,0.3c0,0.3-0.4,0.8-1.2,1.5c-0.8,0.7-1.9,1.3-3.2,1.8
		c-1.3,0.5-2.7,0.8-4.1,0.8c-2.4,0-4.4-0.5-6.1-1.4s-3.1-2.2-4-3.9s-1.4-3.4-1.4-5.2c0-1.8,0.4-3.5,1.4-5.1c0.9-1.6,2.2-2.8,3.9-3.7
		c1.7-0.9,3.6-1.3,5.8-1.3c1.4,0,2.7,0.2,3.9,0.5s2.1,0.8,2.8,1.2c0.7,0.5,1,0.8,1,1.1c0,0.4,0,0.7,0,1.1c0,0.3,0,0.5,0,0.6
		c0,0.1,0,0.3,0.1,0.5s0.1,0.4,0.1,0.6c0,0.3-0.2,0.5-0.6,0.5c-0.1,0-0.3-0.1-0.4-0.2s-0.3-0.4-0.6-0.9c-0.5-1.1-1.1-1.9-1.7-2.4
		c-1.1-0.9-2.6-1.3-4.5-1.3c-2.5,0-4.4,0.8-5.8,2.5c-1.4,1.7-2.1,3.8-2.1,6.4c0,2.9,0.8,5.1,2.2,6.8c1.5,1.7,3.5,2.5,6.1,2.5
		c0.6,0,1.7-0.2,3.1-0.6c1.4-0.4,2.8-1.2,4.1-2.3C255.4,77.8,255.6,77.7,255.8,77.7z"/>
	<path class="st0" d="M265,79.4c0,0.3,0.1,0.5,0.2,0.8c0.2,0.2,0.5,0.4,1,0.6c0.5,0.2,0.8,0.3,0.9,0.4c0.1,0.1,0.2,0.2,0.2,0.4
		c0,0.1-0.1,0.3-0.3,0.4c-0.2,0.1-0.5,0.2-0.8,0.2c-0.2,0-0.7,0-1.2-0.1s-1-0.1-1.2-0.1c-0.3,0-0.7,0-1.2,0.1s-0.9,0.1-1.1,0.1
		c-0.7,0-1.1-0.2-1.1-0.6c0-0.2,0.1-0.4,0.2-0.5s0.4-0.1,0.7-0.2s0.6-0.2,0.8-0.4s0.3-0.6,0.3-1.2V64.7c0-0.3-0.1-0.6-0.2-0.8
		c-0.1-0.2-0.5-0.4-1-0.6c-0.5-0.1-0.8-0.2-0.9-0.4s-0.1-0.3-0.1-0.4c0-0.1,0.1-0.2,0.2-0.3c0.1-0.1,0.3-0.2,0.5-0.2
		c0.4,0,0.9,0,1.4,0.1c0.6,0.1,1,0.1,1.3,0.1c0.3,0,0.8,0,1.2-0.1c0.5-0.1,1-0.1,1.4-0.1c0.5,0,0.7,0.2,0.7,0.5
		c0,0.2-0.1,0.4-0.2,0.5s-0.4,0.2-0.7,0.2c-0.3,0.1-0.6,0.2-0.9,0.4c-0.2,0.2-0.3,0.6-0.3,1.2L265,79.4L265,79.4z M277.9,79.4
		c0,0.3,0.1,0.6,0.3,0.8c0.2,0.2,0.5,0.4,1,0.6c0.5,0.1,0.8,0.2,0.9,0.3s0.1,0.2,0.1,0.4c0,0.1-0.1,0.3-0.3,0.4
		c-0.2,0.1-0.5,0.2-0.8,0.2c-0.2,0-0.7,0-1.2-0.1s-1-0.1-1.2-0.1c-0.3,0-0.7,0-1.2,0.1s-0.9,0.1-1.1,0.1c-0.7,0-1.1-0.2-1.1-0.6
		c0-0.2,0.1-0.4,0.2-0.5s0.4-0.1,0.7-0.2c0.3-0.1,0.6-0.2,0.8-0.4s0.3-0.6,0.3-1.2v-8.3c0-0.3-0.1-0.5-0.3-0.7
		c-0.2-0.2-0.6-0.2-1.3-0.2h-6.6c-0.6,0-0.9-0.1-1.1-0.2c-0.2-0.1-0.2-0.3-0.2-0.5s0.1-0.4,0.3-0.5c0.2-0.1,0.6-0.2,1.1-0.2h7.1
		c0.4,0,0.6-0.1,0.8-0.2s0.2-0.3,0.2-0.7c0-2,0-3.3-0.1-3.7c-0.1-0.4-0.5-0.7-1.3-0.9c-0.4-0.1-0.7-0.2-0.8-0.3s-0.1-0.3-0.1-0.4
		c0-0.1,0.1-0.2,0.2-0.3c0.1-0.1,0.3-0.2,0.5-0.2c0.4,0,0.9,0,1.4,0.1c0.6,0.1,1,0.1,1.3,0.1c0.3,0,0.8,0,1.2-0.1
		c0.5-0.1,1-0.1,1.4-0.1c0.5,0,0.7,0.2,0.7,0.5c0,0.2-0.1,0.4-0.2,0.5s-0.4,0.1-0.7,0.2s-0.6,0.2-0.9,0.4c-0.2,0.2-0.4,0.6-0.4,1.3
		L277.9,79.4L277.9,79.4z"/>
	<path class="st0" d="M303.9,68c-0.2,0.3-0.3,0.5-0.3,0.6c0,0.1,0,0.2,0.1,0.3l7.6,10.9c0.2,0.3,0.5,0.5,0.8,0.6s0.5,0.2,0.7,0.2
		c0.2,0,0.4,0.1,0.5,0.2s0.2,0.3,0.2,0.4c0,0.3-0.1,0.5-0.4,0.7s-0.5,0.2-0.9,0.2c-0.8,0-1.6-0.3-2.5-1c-0.9-0.6-1.7-1.5-2.5-2.5
		l-5.3-7.5c-0.1-0.2-0.2-0.2-0.2-0.2s-0.1,0.1-0.2,0.2l-1.9,2.6c-0.1,0.1-0.1,0.3-0.1,0.4v5.2c0,0.3,0.1,0.5,0.2,0.7
		c0.1,0.2,0.5,0.4,0.9,0.5c0.5,0.1,0.7,0.2,0.8,0.3c0.1,0.1,0.1,0.3,0.1,0.4c0,0.2-0.1,0.4-0.4,0.5s-0.6,0.2-1.1,0.2
		c-0.2,0-0.5-0.1-1-0.2s-0.8-0.2-1.1-0.2c-0.4,0-0.9,0.1-1.4,0.2s-0.9,0.2-1.2,0.2c-0.2,0-0.5-0.1-0.7-0.2s-0.3-0.3-0.3-0.6
		c0-0.2,0-0.3,0.1-0.4c0.1-0.1,0.4-0.2,1-0.2c0.5-0.1,0.9-0.2,1.1-0.6s0.2-0.7,0.2-1.2V62.3c0-0.4-0.1-0.8-0.2-1.1
		c-0.2-0.3-0.5-0.5-1-0.6s-0.8-0.2-0.9-0.3c-0.1-0.1-0.1-0.3-0.1-0.5s0.1-0.4,0.3-0.6c0.2-0.2,0.5-0.3,0.9-0.3
		c0.4,0,0.8,0.1,1.4,0.2c0.5,0.1,1,0.2,1.4,0.2c0.2,0,0.5-0.1,0.9-0.2c0.4-0.1,0.8-0.2,1.3-0.2c0.4,0,0.7,0.1,0.9,0.2
		c0.2,0.2,0.4,0.3,0.4,0.5c0,0.2-0.1,0.3-0.2,0.4c-0.1,0.1-0.4,0.2-0.8,0.4c-0.4,0.1-0.7,0.2-0.9,0.3s-0.3,0.3-0.4,0.5
		s-0.2,0.6-0.2,1.1v8.6l0,0.3l0.2-0.2l6.6-9.3c0.3-0.4,0.5-0.8,0.5-1c0-0.1,0-0.2-0.2-0.3c-0.1-0.1-0.4-0.1-0.8-0.2
		s-0.7-0.1-0.8-0.2c-0.1-0.1-0.2-0.3-0.2-0.5c0-0.2,0.1-0.4,0.3-0.6c0.2-0.2,0.5-0.2,0.8-0.2c0.3,0,0.6,0,1,0.1
		c0.4,0.1,0.7,0.1,0.8,0.1c0.2,0,0.5,0,1-0.1c0.5-0.1,0.8-0.1,1.1-0.1c0.3,0,0.5,0.1,0.6,0.2c0.2,0.2,0.2,0.3,0.2,0.6
		c0,0.1,0,0.2-0.1,0.3c-0.1,0.1-0.4,0.2-1,0.4s-1,0.5-1.3,0.9L303.9,68z"/>
	<path class="st0" d="M319.3,64.8c0-0.5-0.1-0.9-0.3-1.1c-0.2-0.2-0.5-0.3-0.9-0.4c-0.4-0.1-0.6-0.2-0.7-0.3
		c-0.1-0.1-0.2-0.3-0.2-0.5c0-0.1,0.1-0.3,0.2-0.3s0.3-0.1,0.5-0.1c0.3,0,0.8,0,1.4,0.1s1.1,0.1,1.4,0.1c0.3,0,0.7,0,1.3-0.1
		c0.6-0.1,1-0.1,1.3-0.1c0.5,0,0.8,0.2,0.8,0.6c0,0.2-0.1,0.4-0.2,0.5c-0.1,0.1-0.4,0.2-0.8,0.2s-0.7,0.3-0.9,0.6s-0.3,0.8-0.3,1.4
		v14.3c0,0.3,0.1,0.5,0.2,0.7c0.1,0.2,0.4,0.4,0.9,0.5c0.5,0.1,0.8,0.2,0.9,0.4c0.1,0.1,0.1,0.3,0.1,0.4c0,0.3-0.3,0.5-0.9,0.5
		c-0.3,0-0.7,0-1.2-0.1s-1-0.1-1.2-0.1c-0.3,0-0.7,0-1.2,0.1c-0.5,0.1-0.9,0.1-1.2,0.1c-0.8,0-1.1-0.2-1.1-0.7c0-0.1,0-0.2,0.1-0.3
		s0.4-0.2,0.9-0.3c0.5-0.1,0.8-0.3,1-0.6c0.2-0.3,0.2-0.7,0.2-1.1L319.3,64.8L319.3,64.8z"/>
	<path class="st0" d="M340.6,61.8c0.3,0,0.6,0.3,0.8,1c0.2,0.7,0.3,1.3,0.3,1.8s-0.2,0.8-0.6,0.8c-0.1,0-0.3,0-0.4-0.1
		c-0.1-0.1-0.3-0.4-0.5-0.9s-0.5-0.8-0.9-1s-0.9-0.3-1.3-0.3c-0.7,0-1.2,0.2-1.5,0.4c-0.3,0.3-0.5,0.8-0.5,1.4v14.7
		c0,0.2,0.1,0.4,0.2,0.6s0.5,0.3,0.9,0.4s0.7,0.2,0.8,0.3c0.1,0.1,0.1,0.2,0.1,0.3c0,0.5-0.3,0.7-0.8,0.7c-0.3,0-0.7,0-1.3-0.1
		c-0.6-0.1-1-0.1-1.3-0.1c-0.3,0-0.6,0-1.1,0.1s-0.9,0.1-1.1,0.1c-0.3,0-0.6-0.1-0.8-0.2s-0.3-0.3-0.3-0.6c0-0.1,0-0.2,0.1-0.3
		c0.1-0.1,0.4-0.2,0.8-0.3c0.5-0.1,0.8-0.3,0.9-0.6c0.2-0.3,0.2-0.6,0.2-0.9V64.5c0-0.9-0.6-1.3-2-1.3c-0.9,0-1.5,0.2-1.8,0.5
		c-0.2,0.2-0.4,0.5-0.5,0.9s-0.2,0.7-0.3,0.8s-0.2,0.1-0.4,0.1c-0.2,0-0.3,0-0.5-0.1c-0.1-0.1-0.2-0.2-0.2-0.3c0-1,0.1-1.8,0.3-2.4
		c0.2-0.6,0.5-0.8,0.8-0.8C328.9,61.8,340.6,61.8,340.6,61.8z"/>
	<path class="st0" d="M364.6,77.7c0.1,0,0.3,0.1,0.4,0.2c0.1,0.1,0.2,0.2,0.2,0.3c0,0.3-0.4,0.8-1.2,1.5c-0.8,0.7-1.9,1.3-3.2,1.8
		c-1.3,0.5-2.7,0.8-4.1,0.8c-2.4,0-4.4-0.5-6.1-1.4c-1.7-0.9-3.1-2.2-4-3.9s-1.4-3.4-1.4-5.2c0-1.8,0.5-3.5,1.4-5.1s2.2-2.8,3.9-3.7
		c1.7-0.9,3.6-1.3,5.8-1.3c1.4,0,2.7,0.2,3.9,0.5s2.1,0.8,2.8,1.2c0.7,0.5,1,0.8,1,1.1c0,0.4,0,0.7,0,1.1c0,0.3,0,0.5,0,0.6
		c0,0.1,0,0.3,0.1,0.5c0.1,0.2,0.1,0.4,0.1,0.6c0,0.3-0.2,0.5-0.6,0.5c-0.1,0-0.3-0.1-0.4-0.2s-0.3-0.4-0.6-0.9
		c-0.5-1.1-1.1-1.9-1.7-2.4c-1.1-0.9-2.6-1.3-4.5-1.3c-2.5,0-4.4,0.8-5.8,2.5c-1.4,1.7-2.1,3.8-2.1,6.4c0,2.9,0.8,5.1,2.2,6.8
		c1.5,1.7,3.5,2.5,6,2.5c0.6,0,1.7-0.2,3.1-0.6s2.8-1.2,4.1-2.3C364.2,77.8,364.4,77.7,364.6,77.7z"/>
	<path class="st0" d="M373.8,79.4c0,0.3,0.1,0.5,0.2,0.8c0.2,0.2,0.5,0.4,1,0.6c0.5,0.2,0.8,0.3,0.9,0.4c0.1,0.1,0.2,0.2,0.2,0.4
		c0,0.1-0.1,0.3-0.3,0.4c-0.2,0.1-0.5,0.2-0.8,0.2c-0.2,0-0.7,0-1.2-0.1s-1-0.1-1.2-0.1c-0.3,0-0.7,0-1.2,0.1s-0.9,0.1-1.1,0.1
		c-0.7,0-1.1-0.2-1.1-0.6c0-0.2,0.1-0.4,0.2-0.5s0.4-0.1,0.7-0.2s0.6-0.2,0.8-0.4s0.3-0.6,0.3-1.2V64.7c0-0.3-0.1-0.6-0.2-0.8
		c-0.1-0.2-0.5-0.4-1-0.6c-0.5-0.1-0.8-0.2-0.9-0.4s-0.1-0.3-0.1-0.4c0-0.1,0.1-0.2,0.2-0.3c0.1-0.1,0.3-0.2,0.5-0.2
		c0.4,0,0.9,0,1.4,0.1c0.6,0.1,1,0.1,1.3,0.1c0.3,0,0.8,0,1.2-0.1c0.5-0.1,1-0.1,1.4-0.1c0.5,0,0.7,0.2,0.7,0.5
		c0,0.2-0.1,0.4-0.2,0.5s-0.4,0.2-0.7,0.2c-0.3,0.1-0.6,0.2-0.9,0.4c-0.2,0.2-0.3,0.6-0.3,1.2L373.8,79.4L373.8,79.4z M386.7,79.4
		c0,0.3,0.1,0.6,0.3,0.8c0.2,0.2,0.5,0.4,1,0.6c0.5,0.1,0.8,0.2,0.9,0.3s0.1,0.2,0.1,0.4c0,0.1-0.1,0.3-0.3,0.4
		c-0.2,0.1-0.5,0.2-0.8,0.2c-0.2,0-0.7,0-1.2-0.1s-1-0.1-1.2-0.1c-0.3,0-0.7,0-1.2,0.1s-0.9,0.1-1.1,0.1c-0.7,0-1.1-0.2-1.1-0.6
		c0-0.2,0.1-0.4,0.2-0.5s0.4-0.1,0.7-0.2c0.3-0.1,0.6-0.2,0.8-0.4s0.3-0.6,0.3-1.2v-8.3c0-0.3-0.1-0.5-0.3-0.7
		c-0.2-0.2-0.6-0.2-1.3-0.2h-6.6c-0.6,0-0.9-0.1-1.1-0.2c-0.2-0.1-0.2-0.3-0.2-0.5s0.1-0.4,0.3-0.5c0.2-0.1,0.6-0.2,1.1-0.2h7.1
		c0.4,0,0.6-0.1,0.8-0.2s0.2-0.3,0.2-0.7c0-2,0-3.3-0.1-3.7c-0.1-0.4-0.5-0.7-1.3-0.9c-0.4-0.1-0.7-0.2-0.8-0.3s-0.1-0.3-0.1-0.4
		c0-0.1,0.1-0.2,0.2-0.3c0.1-0.1,0.3-0.2,0.5-0.2c0.4,0,0.9,0,1.4,0.1c0.6,0.1,1,0.1,1.3,0.1c0.3,0,0.8,0,1.2-0.1
		c0.5-0.1,1-0.1,1.4-0.1c0.5,0,0.7,0.2,0.7,0.5c0,0.2-0.1,0.4-0.2,0.5s-0.4,0.1-0.7,0.2s-0.6,0.2-0.9,0.4c-0.2,0.2-0.4,0.6-0.4,1.3
		L386.7,79.4L386.7,79.4z"/>
	<path class="st0" d="M405,80.8c0.5,0,0.9-0.1,1.2-0.4c0.3-0.2,0.4-0.6,0.4-0.9c0-0.3,0.1-0.6,0.3-0.8c0.2-0.2,0.4-0.3,0.6-0.3
		s0.4,0.1,0.6,0.3c0.2,0.2,0.2,0.4,0.2,0.8c0,0.3,0,0.7,0,1.1c0,0.4,0,0.6,0,0.8c0,0.4-0.1,0.6-0.2,0.7c-0.1,0.1-0.4,0.2-0.9,0.2
		H395c-0.9,0-1.4-0.1-1.8-0.2c-0.3-0.1-0.5-0.3-0.5-0.5c0-0.4,0.3-0.6,0.9-0.6c0.7,0,1.2-0.1,1.4-0.3s0.3-0.6,0.3-1V66.9
		c0-1.4,0-2.3-0.1-2.7c0-0.4-0.2-0.7-0.4-0.8s-0.6-0.2-1.2-0.2c-0.4,0-0.6-0.1-0.8-0.2c-0.2-0.1-0.3-0.3-0.3-0.5
		c0-0.2,0.1-0.3,0.3-0.5c0.2-0.1,0.4-0.2,0.6-0.2h11.6c0.5,0,0.8,0.1,0.9,0.3c0.1,0.2,0.2,0.4,0.3,0.8c0.1,0.3,0.1,0.9,0.1,1.7
		c0,0.4-0.2,0.5-0.5,0.5c-0.2,0-0.4-0.1-0.5-0.2c-0.1-0.1-0.3-0.4-0.5-0.8c-0.2-0.4-0.4-0.7-0.5-0.8c-0.2-0.1-0.4-0.2-0.6-0.2h-4.1
		c-0.7,0-1.1,0.1-1.3,0.3s-0.3,0.5-0.3,0.8v2.9c0,0.7,0.1,1.1,0.3,1.3c0.2,0.2,0.6,0.3,1.2,0.3h4c0.3,0,0.6-0.1,0.8-0.4
		c0.2-0.2,0.3-0.5,0.3-0.8c0-0.2,0.1-0.3,0.2-0.4c0.1-0.1,0.3-0.2,0.5-0.2c0.2,0,0.4,0.1,0.5,0.2s0.2,0.3,0.2,0.5
		c0,0.2,0,0.5-0.1,0.8s-0.1,0.7-0.1,0.9c0,0.3,0,0.7,0.1,1.1c0.1,0.4,0.1,0.6,0.1,0.7c0,0.2-0.1,0.4-0.2,0.5
		c-0.1,0.1-0.3,0.2-0.5,0.2c-0.2,0-0.4-0.1-0.5-0.3c-0.1-0.2-0.2-0.4-0.2-0.7c0-0.3-0.1-0.6-0.3-0.8c-0.2-0.2-0.5-0.2-1-0.2h-4
		c-0.4,0-0.7,0.1-0.9,0.2s-0.4,0.3-0.4,0.6v8.8c0,0.5,0.1,0.8,0.4,0.9c0.3,0.2,0.7,0.2,1.3,0.2L405,80.8L405,80.8z"/>
	<path class="st0" d="M427.8,64.5c0-0.4-0.1-0.7-0.4-0.9c-0.3-0.2-0.6-0.3-1.1-0.3c-0.3,0-0.6,0-0.8-0.2s-0.3-0.2-0.3-0.4
		c0-0.2,0.1-0.4,0.3-0.5c0.2-0.1,0.4-0.2,0.6-0.2c0.1,0,0.5,0.1,1.2,0.2c0.7,0.1,1.2,0.2,1.4,0.2c0.3,0,0.7,0,1.2-0.1
		c0.5-0.1,0.9-0.1,1.1-0.1c0.6,0,0.9,0.2,0.9,0.7c0,0.4-0.3,0.5-0.9,0.5c-0.5,0-0.9,0.1-1.1,0.2c-0.2,0.2-0.4,0.3-0.5,0.5
		c-0.1,0.2-0.1,0.5-0.1,0.8v13.8c0,0.9,0.1,1.6,0.3,2.1s0.3,0.9,0.3,1.2c0,0.3-0.1,0.4-0.4,0.4c-0.2,0-0.3,0-0.4-0.1
		c-0.1-0.1-0.2-0.2-0.5-0.5l-12.5-15.2c-0.1-0.2-0.2-0.2-0.4-0.2c-0.1,0-0.2,0.2-0.2,0.5v12.8c0,0.4,0.2,0.7,0.5,0.9
		c0.4,0.2,0.7,0.3,1,0.3c0.8,0,1.2,0.2,1.2,0.7c0,0.2,0,0.3-0.1,0.4c-0.1,0.1-0.3,0.1-0.6,0.1c-0.3,0-0.8,0-1.4-0.1
		s-1.1-0.1-1.2-0.1c-0.3,0-0.7,0-1.3,0.1s-1,0.1-1.2,0.1c-0.5,0-0.8-0.2-0.8-0.7c0-0.4,0.3-0.6,0.9-0.6c0.5,0,0.9-0.1,1.2-0.4
		c0.3-0.2,0.4-0.6,0.4-1.1V64.7c0-0.4-0.1-0.8-0.4-1.1s-0.6-0.4-1-0.4c-0.5,0-0.9,0-1-0.2c-0.2-0.1-0.3-0.3-0.3-0.5
		c0-0.4,0.2-0.6,0.8-0.6c0.1,0,0.3,0,0.7,0.1c0.4,0,0.7,0.1,0.9,0.1c0.2,0,0.4,0,0.6-0.1c0.2,0,0.5-0.1,0.6-0.1
		c0.3,0,0.6,0.2,1.1,0.7c0.4,0.4,1.9,2.2,4.4,5.2l6.6,8.2c0.1,0.1,0.2,0.2,0.3,0.2c0.2,0,0.3-0.2,0.3-0.8L427.8,64.5L427.8,64.5z"/>
</g>
<g>
	<path class="st0" d="M224.3,101l0.4-0.1l-0.5,1.7c-0.2,0.7-0.4,1.5-0.6,2.4c-0.1,0.5-0.1,0.8-0.1,0.9s0.1,0.2,0.2,0.2
		c0.1,0,0.2-0.1,0.4-0.1c0.3-0.2,0.6-0.4,0.8-0.6l0.2,0.3c-0.5,0.5-0.9,0.8-1,0.9c-0.3,0.2-0.6,0.3-0.8,0.4
		c-0.2,0.1-0.3,0.1-0.5,0.1c-0.1,0-0.2,0-0.3-0.1c-0.1-0.1-0.1-0.1-0.1-0.2c0-0.1,0-0.2,0.1-0.3l0.3-0.9c-0.4,0.5-0.9,0.9-1.4,1.2
		c-0.3,0.2-0.6,0.3-0.9,0.3c-0.3,0-0.5-0.1-0.6-0.3c-0.2-0.2-0.3-0.6-0.3-1c0-0.5,0.1-1,0.4-1.6c0.3-0.6,0.6-1.1,1-1.6
		c0.4-0.5,0.9-0.8,1.4-1.1c0.4-0.2,0.8-0.3,1.4-0.3c0.1,0,0.3,0,0.4,0L224.3,101z M223.4,102c-0.2-0.1-0.4-0.1-0.6-0.1
		c-0.4,0-0.8,0.1-1.1,0.3c-0.3,0.2-0.6,0.6-0.8,1.2s-0.4,1.2-0.4,1.7c0,0.3,0.1,0.5,0.2,0.7s0.2,0.2,0.4,0.2c0.3,0,0.6-0.2,1-0.5
		c0.4-0.3,0.6-0.8,0.8-1.5L223.4,102z"/>
	<path class="st0" d="M232,102.3c0.4-0.4,0.7-0.7,1.1-0.9c0.4-0.2,0.7-0.3,0.9-0.3c0.3,0,0.6,0.1,0.8,0.4c0.2,0.2,0.3,0.6,0.3,1.2
		c0,0.7-0.2,1.5-0.5,2.2s-0.8,1.2-1.3,1.6s-1,0.6-1.5,0.6c-0.4,0-0.8-0.1-1-0.4s-0.4-0.6-0.4-0.9c0-0.3,0.1-0.8,0.2-1.3l0.8-3.6
		c0.2-0.9,0.4-1.6,0.7-2s0.7-0.8,1.2-1.1c0.5-0.3,0.9-0.4,1.4-0.4c0.3,0,0.4,0,0.6,0.1s0.2,0.2,0.2,0.4c0,0.1-0.1,0.2-0.2,0.3
		s-0.3,0.1-0.5,0.1c-0.1,0-0.4,0-0.8-0.1c-0.2,0-0.3-0.1-0.4-0.1c-0.2,0-0.4,0.1-0.6,0.4c-0.1,0.2-0.2,0.7-0.4,1.4L232,102.3z
		 M233.3,101.9c-0.2,0-0.5,0.1-0.8,0.4c-0.3,0.3-0.6,0.7-0.9,1.4s-0.4,1.3-0.4,2c0,0.2,0.1,0.4,0.2,0.6c0.2,0.2,0.3,0.2,0.6,0.2
		c0.5,0,0.9-0.4,1.3-1.2s0.6-1.6,0.6-2.4c0-0.4-0.1-0.7-0.2-0.9C233.6,102,233.5,101.9,233.3,101.9z"/>
	<path class="st0" d="M237.7,106.8h-1l0.5-1.8c0.2-0.9,0.4-1.8,0.6-2.6c0-0.2,0.1-0.3,0.1-0.4c0-0.1-0.1-0.2-0.1-0.2
		c-0.1,0-0.2,0.1-0.3,0.1s-0.4,0.3-0.8,0.7l-0.2-0.2c0.4-0.5,0.9-0.8,1.3-1.1c0.4-0.2,0.8-0.3,1-0.3c0.1,0,0.1,0,0.2,0.1
		c0.1,0,0.1,0.1,0.1,0.2c0,0.1,0,0.2-0.1,0.5l-0.3,1.2c0.5-0.7,1-1.3,1.6-1.8c0.3-0.2,0.5-0.4,0.7-0.4c0.1,0,0.2,0,0.3,0.1
		s0.1,0.2,0.1,0.3c0,0.1,0,0.2-0.1,0.3c-0.1,0.1-0.3,0.2-0.7,0.3c-0.3,0.1-0.6,0.2-0.8,0.4s-0.4,0.4-0.7,0.7s-0.4,0.6-0.5,0.8
		s-0.2,0.8-0.5,1.7L237.7,106.8z"/>
	<path class="st0" d="M245.9,101l0.4-0.1l-0.5,1.7c-0.2,0.7-0.4,1.5-0.6,2.4c-0.1,0.5-0.1,0.8-0.1,0.9s0.1,0.2,0.2,0.2
		c0.1,0,0.2-0.1,0.4-0.1c0.3-0.2,0.6-0.4,0.8-0.6l0.2,0.3c-0.5,0.5-0.9,0.8-1,0.9c-0.3,0.2-0.6,0.3-0.8,0.4
		c-0.2,0.1-0.3,0.1-0.5,0.1c-0.1,0-0.2,0-0.3-0.1c-0.1-0.1-0.1-0.1-0.1-0.2c0-0.1,0-0.2,0.1-0.3l0.3-0.9c-0.4,0.5-0.9,0.9-1.4,1.2
		c-0.3,0.2-0.6,0.3-0.9,0.3c-0.3,0-0.5-0.1-0.6-0.3c-0.2-0.2-0.3-0.6-0.3-1c0-0.5,0.1-1,0.4-1.6c0.3-0.6,0.6-1.1,1-1.6
		c0.4-0.5,0.9-0.8,1.4-1.1c0.4-0.2,0.8-0.3,1.4-0.3c0.1,0,0.3,0,0.4,0L245.9,101z M245.1,102c-0.2-0.1-0.4-0.1-0.6-0.1
		c-0.4,0-0.8,0.1-1.1,0.3s-0.6,0.6-0.8,1.2s-0.4,1.2-0.4,1.7c0,0.3,0.1,0.5,0.2,0.7s0.2,0.2,0.4,0.2c0.3,0,0.6-0.2,1-0.5
		c0.4-0.3,0.6-0.8,0.8-1.5L245.1,102z"/>
	<path class="st0" d="M250.8,101.1c0.4,0,0.7,0.1,0.9,0.2s0.3,0.3,0.3,0.5c0,0.1-0.1,0.2-0.1,0.3s-0.2,0.1-0.3,0.1
		c-0.1,0-0.2,0-0.2-0.1s-0.1-0.1-0.3-0.3c-0.2-0.3-0.4-0.4-0.7-0.4c-0.2,0-0.4,0.1-0.5,0.2s-0.2,0.3-0.2,0.5c0,0.2,0.1,0.4,0.1,0.5
		s0.3,0.5,0.7,0.8c0.5,0.5,0.8,1,0.8,1.5s-0.2,0.9-0.6,1.3s-0.9,0.5-1.6,0.5c-0.5,0-0.9-0.1-1.2-0.3s-0.4-0.5-0.4-0.8
		c0-0.2,0.1-0.3,0.1-0.4c0.1-0.1,0.2-0.2,0.4-0.2c0.1,0,0.2,0,0.3,0.1c0.1,0.1,0.1,0.2,0.1,0.3c0,0.1,0,0.1,0,0.2c0,0.1,0,0.1,0,0.2
		c0,0.2,0.1,0.3,0.2,0.4c0.1,0.1,0.3,0.2,0.5,0.2c0.2,0,0.5,0,0.6-0.1s0.3-0.2,0.4-0.4c0.1-0.2,0.2-0.3,0.2-0.5s-0.1-0.3-0.1-0.5
		c-0.1-0.2-0.3-0.4-0.6-0.8c-0.5-0.5-0.7-1-0.7-1.5c0-0.4,0.2-0.8,0.5-1.2C249.8,101.3,250.3,101.1,250.8,101.1z"/>
	<path class="st0" d="M256,101.1c0.4,0,0.7,0.1,0.9,0.2s0.3,0.3,0.3,0.5c0,0.1,0,0.2-0.1,0.3s-0.2,0.1-0.3,0.1c-0.1,0-0.2,0-0.2-0.1
		s-0.1-0.1-0.3-0.3c-0.2-0.3-0.4-0.4-0.7-0.4c-0.2,0-0.4,0.1-0.5,0.2s-0.2,0.3-0.2,0.5c0,0.2,0.1,0.4,0.1,0.5s0.3,0.5,0.7,0.8
		c0.5,0.5,0.7,1,0.7,1.5s-0.2,0.9-0.6,1.3c-0.4,0.4-0.9,0.5-1.6,0.5c-0.5,0-0.9-0.1-1.2-0.3s-0.4-0.5-0.4-0.8c0-0.2,0.1-0.3,0.1-0.4
		c0.1-0.1,0.2-0.2,0.4-0.2c0.1,0,0.2,0,0.3,0.1c0.1,0.1,0.1,0.2,0.1,0.3c0,0.1,0,0.1,0,0.2c0,0.1,0,0.1,0,0.2c0,0.2,0.1,0.3,0.2,0.4
		c0.1,0.1,0.3,0.2,0.5,0.2c0.2,0,0.5,0,0.6-0.1c0.2-0.1,0.3-0.2,0.4-0.4c0.1-0.2,0.2-0.3,0.2-0.5s-0.1-0.3-0.1-0.5
		c-0.1-0.2-0.3-0.4-0.6-0.8c-0.5-0.5-0.7-1-0.7-1.5c0-0.4,0.2-0.8,0.5-1.2C255,101.3,255.4,101.1,256,101.1z"/>
	<path class="st0" d="M261.7,105.1l0.2,0.3c-1.1,1.1-2.1,1.6-2.9,1.6c-0.3,0-0.6-0.1-0.7-0.3c-0.2-0.2-0.2-0.6-0.2-1.1
		c0-1,0.3-1.9,0.9-2.9c0.7-1.1,1.5-1.6,2.4-1.6c0.3,0,0.6,0.1,0.7,0.2c0.2,0.2,0.2,0.4,0.2,0.7c0,0.3-0.1,0.6-0.3,0.9
		s-0.6,0.6-1.1,0.9c-0.3,0.2-0.8,0.4-1.7,0.8c0,0.2-0.1,0.5-0.1,0.7c0,0.3,0,0.6,0.1,0.7c0.1,0.1,0.2,0.2,0.4,0.2s0.4-0.1,0.6-0.2
		C260.7,105.8,261.1,105.5,261.7,105.1z M259.3,104.1c0.7-0.3,1.3-0.7,1.6-1.1c0.2-0.3,0.4-0.5,0.4-0.8c0-0.2,0-0.3-0.1-0.5
		c-0.1-0.1-0.2-0.2-0.4-0.2c-0.2,0-0.3,0.1-0.5,0.2c-0.2,0.2-0.4,0.4-0.5,0.8C259.5,103.1,259.4,103.6,259.3,104.1z"/>
	<path class="st0" d="M264.8,106.8h-1l0.5-1.8c0.2-0.9,0.4-1.8,0.6-2.6c0-0.2,0.1-0.3,0.1-0.4c0-0.1,0-0.2-0.1-0.2
		c-0.1,0-0.2,0.1-0.3,0.1c-0.1,0.1-0.4,0.3-0.8,0.7l-0.2-0.2c0.4-0.5,0.9-0.8,1.3-1.1s0.8-0.3,1-0.3c0.1,0,0.1,0,0.2,0.1
		c0,0,0.1,0.1,0.1,0.2c0,0.1,0,0.2-0.1,0.5l-0.3,1.2c0.5-0.7,1-1.3,1.5-1.8c0.3-0.2,0.5-0.4,0.7-0.4c0.1,0,0.2,0,0.3,0.1
		s0.1,0.2,0.1,0.3c0,0.1,0,0.2-0.1,0.3s-0.3,0.2-0.7,0.3c-0.3,0.1-0.6,0.2-0.8,0.4c-0.2,0.2-0.4,0.4-0.7,0.7s-0.4,0.6-0.5,0.8
		s-0.2,0.8-0.5,1.7L264.8,106.8z"/>
	<path class="st0" d="M268.6,102.7l-0.3-0.2c0.5-0.5,0.9-0.8,1.2-1.1c0.4-0.2,0.7-0.3,1-0.3c0.1,0,0.3,0,0.3,0.1
		c0.1,0.1,0.1,0.2,0.1,0.3c0,0.1-0.1,0.7-0.4,1.7c-0.5,1.6-0.7,2.6-0.7,2.9c0,0.1,0,0.1,0,0.2s0.1,0.1,0.1,0.1
		c0.1,0,0.5-0.3,1.1-0.8l0.3,0.3c-0.6,0.6-1.1,1-1.4,1.1c-0.3,0.2-0.5,0.2-0.7,0.2c-0.2,0-0.3-0.1-0.4-0.2s-0.1-0.2-0.1-0.4
		c0-0.6,0.3-1.9,1-4.2c0-0.1,0-0.2,0-0.3c0-0.1,0-0.1-0.1-0.1c-0.1,0-0.2,0-0.3,0.1C269.3,102.1,269,102.3,268.6,102.7z M271.3,98.2
		c0.1,0,0.3,0.1,0.4,0.1s0.1,0.2,0.1,0.4c0,0.2-0.1,0.4-0.2,0.5c-0.1,0.2-0.3,0.2-0.5,0.2c-0.1,0-0.2-0.1-0.3-0.1
		c-0.1-0.1-0.1-0.2-0.1-0.4c0-0.2,0.1-0.4,0.2-0.5C271,98.3,271.1,98.2,271.3,98.2z"/>
	<path class="st0" d="M276,105.1l0.2,0.3c-1.1,1.1-2.1,1.6-2.9,1.6c-0.3,0-0.6-0.1-0.7-0.3c-0.2-0.2-0.2-0.6-0.2-1.1
		c0-1,0.3-1.9,0.9-2.9c0.7-1.1,1.5-1.6,2.4-1.6c0.3,0,0.6,0.1,0.7,0.2c0.2,0.2,0.2,0.4,0.2,0.7c0,0.3-0.1,0.6-0.3,0.9
		s-0.6,0.6-1.1,0.9c-0.3,0.2-0.8,0.4-1.7,0.8c0,0.2-0.1,0.5-0.1,0.7c0,0.3,0,0.6,0.1,0.7c0.1,0.1,0.2,0.2,0.4,0.2s0.4-0.1,0.6-0.2
		C275,105.8,275.4,105.5,276,105.1z M273.6,104.1c0.7-0.3,1.3-0.7,1.6-1.1c0.2-0.3,0.4-0.5,0.4-0.8c0-0.2,0-0.3-0.1-0.5
		c-0.1-0.1-0.2-0.2-0.4-0.2c-0.2,0-0.3,0.1-0.5,0.2c-0.2,0.2-0.4,0.4-0.5,0.8C273.8,103.1,273.7,103.6,273.6,104.1z"/>
	<path class="st0" d="M278,103.7h3.1l-0.2,0.7h-3.2L278,103.7z"/>
	<path class="st0" d="M285.4,101.1c0.4,0,0.7,0.1,0.9,0.2c0.2,0.2,0.3,0.3,0.3,0.5c0,0.1,0,0.2-0.1,0.3s-0.2,0.1-0.3,0.1
		c-0.1,0-0.2,0-0.2-0.1s-0.1-0.1-0.3-0.3c-0.2-0.3-0.4-0.4-0.7-0.4c-0.2,0-0.4,0.1-0.5,0.2c-0.1,0.1-0.2,0.3-0.2,0.5
		c0,0.2,0,0.4,0.1,0.5c0.1,0.2,0.3,0.5,0.7,0.8c0.5,0.5,0.8,1,0.8,1.5s-0.2,0.9-0.6,1.3c-0.4,0.4-0.9,0.5-1.6,0.5
		c-0.5,0-0.9-0.1-1.2-0.3s-0.4-0.5-0.4-0.8c0-0.2,0-0.3,0.1-0.4s0.2-0.2,0.4-0.2c0.1,0,0.2,0,0.3,0.1c0.1,0.1,0.1,0.2,0.1,0.3
		c0,0.1,0,0.1,0,0.2c0,0.1,0,0.1,0,0.2c0,0.2,0.1,0.3,0.2,0.4c0.1,0.1,0.3,0.2,0.5,0.2c0.2,0,0.5,0,0.6-0.1s0.3-0.2,0.4-0.4
		s0.2-0.3,0.2-0.5s0-0.3-0.1-0.5c-0.1-0.2-0.3-0.4-0.6-0.8c-0.5-0.5-0.7-1-0.7-1.5c0-0.4,0.2-0.8,0.5-1.2
		C284.4,101.3,284.9,101.1,285.4,101.1z"/>
	<path class="st0" d="M289.5,100.1l1.1-0.4l-0.5,1.9h1.4l-0.1,0.5H290l-0.6,2.3c-0.2,0.7-0.3,1.2-0.3,1.4c0,0.1,0,0.2,0.1,0.3
		s0.1,0.1,0.2,0.1c0.1,0,0.4-0.1,0.6-0.2c0.4-0.2,0.7-0.5,1.1-0.8l0.3,0.3c-1,0.8-1.6,1.2-2,1.4c-0.3,0.2-0.6,0.2-0.8,0.2
		c-0.2,0-0.3-0.1-0.4-0.2s-0.1-0.3-0.1-0.6c0-0.3,0.1-0.8,0.3-1.5l0.7-2.7h-1.1l0.1-0.5h1.1L289.5,100.1z"/>
	<path class="st0" d="M292.7,102.5l-0.2-0.3l0.5-0.3c0.5-0.3,0.8-0.6,1-0.6c0.1-0.1,0.2-0.1,0.3-0.1s0.2,0.1,0.3,0.2
		c0.4,0.5,0.7,1.2,1,2s0.4,1.7,0.4,2.5c0,0.1,0,0.3,0,0.5c0.8-1.4,1.1-2.5,1.1-3.3c0-0.2,0-0.4-0.1-0.7c-0.1-0.3-0.1-0.5-0.1-0.7
		c0-0.1,0-0.2,0.1-0.3c0.1-0.1,0.2-0.1,0.3-0.1c0.2,0,0.3,0.1,0.4,0.2c0.1,0.1,0.1,0.3,0.1,0.5c0,0.6-0.1,1.3-0.4,2.2
		s-0.7,1.8-1.3,2.8s-1.1,1.8-1.6,2.2c-0.5,0.5-0.9,0.8-1.4,1.1c-0.4,0.2-0.9,0.3-1.2,0.3c-0.3,0-0.5-0.1-0.7-0.2
		c-0.1-0.1-0.2-0.2-0.2-0.4c0-0.1,0.1-0.2,0.2-0.3s0.3-0.2,0.5-0.2c0.1,0,0.4,0,0.6,0.1c0.3,0.1,0.5,0.1,0.6,0.1
		c0.3,0,0.6-0.1,0.9-0.3c0.4-0.3,0.8-0.7,1-1.1c0.2-0.4,0.4-0.9,0.4-1.3c0-0.6-0.1-1.4-0.3-2.3c-0.2-0.9-0.4-1.6-0.8-2
		c-0.2-0.2-0.4-0.4-0.5-0.4C293.4,102,293.1,102.2,292.7,102.5z"/>
	<path class="st0" d="M301.8,105.2l0.2,0.2c-0.4,0.4-0.8,0.8-1.2,1.1c-0.5,0.3-0.9,0.5-1.2,0.5c-0.1,0-0.3-0.1-0.4-0.2
		s-0.1-0.2-0.1-0.4c0-0.4,0.1-1.1,0.4-2.2l0.7-3c0.3-1.1,0.5-1.8,0.7-2.2c0.3-0.6,0.7-1,1.2-1.3s1-0.5,1.6-0.5
		c0.2,0,0.4,0.1,0.5,0.1s0.2,0.2,0.2,0.3c0,0.2,0,0.3-0.2,0.4c-0.1,0.1-0.3,0.1-0.5,0.1c-0.1,0-0.3,0-0.6-0.1
		c-0.2,0-0.4-0.1-0.6-0.1s-0.3,0-0.4,0.1c-0.1,0.1-0.2,0.3-0.4,0.7c-0.1,0.3-0.3,1-0.5,2.1l-0.7,2.8c-0.3,1.4-0.5,2.2-0.5,2.2
		c0,0.1,0,0.2,0.2,0.2c0.1,0,0.2-0.1,0.4-0.2C301,105.8,301.4,105.5,301.8,105.2z"/>
	<path class="st0" d="M306.5,105.1l0.2,0.3c-1.1,1.1-2.1,1.6-2.9,1.6c-0.3,0-0.6-0.1-0.7-0.3c-0.2-0.2-0.2-0.6-0.2-1.1
		c0-1,0.3-1.9,0.9-2.9c0.7-1.1,1.5-1.6,2.4-1.6c0.3,0,0.6,0.1,0.7,0.2s0.2,0.4,0.2,0.7c0,0.3-0.1,0.6-0.3,0.9s-0.6,0.6-1.1,0.9
		c-0.3,0.2-0.8,0.4-1.7,0.8c0,0.2-0.1,0.5-0.1,0.7c0,0.3,0,0.6,0.1,0.7c0.1,0.1,0.2,0.2,0.4,0.2s0.4-0.1,0.6-0.2
		C305.5,105.8,306,105.5,306.5,105.1z M304.2,104.1c0.7-0.3,1.3-0.7,1.6-1.1c0.2-0.3,0.4-0.5,0.4-0.8c0-0.2,0-0.3-0.1-0.5
		c-0.1-0.1-0.2-0.2-0.4-0.2c-0.2,0-0.3,0.1-0.5,0.2c-0.2,0.2-0.4,0.4-0.5,0.8C304.4,103.1,304.3,103.6,304.2,104.1z"/>
	<path class="st0" d="M313.4,106.8h-1l0.5-1.8c0.2-0.9,0.4-1.8,0.6-2.6c0-0.2,0.1-0.3,0.1-0.4c0-0.1,0-0.2-0.1-0.2
		c-0.1,0-0.2,0.1-0.3,0.1c-0.1,0.1-0.4,0.3-0.8,0.7l-0.2-0.2c0.4-0.5,0.9-0.8,1.3-1.1s0.8-0.3,1-0.3c0.1,0,0.1,0,0.2,0.1
		c0,0,0.1,0.1,0.1,0.2c0,0.1,0,0.2-0.1,0.5l-0.3,1.2c0.5-0.7,1-1.3,1.5-1.8c0.3-0.2,0.5-0.4,0.7-0.4c0.1,0,0.2,0,0.3,0.1
		s0.1,0.2,0.1,0.3c0,0.1,0,0.2-0.1,0.3c-0.1,0.1-0.3,0.2-0.7,0.3c-0.3,0.1-0.6,0.2-0.8,0.4c-0.2,0.2-0.4,0.4-0.7,0.7
		s-0.4,0.6-0.5,0.8s-0.2,0.8-0.5,1.7L313.4,106.8z"/>
	<path class="st0" d="M320.6,105.1l0.2,0.3c-1.1,1.1-2.1,1.6-2.9,1.6c-0.3,0-0.6-0.1-0.7-0.3c-0.2-0.2-0.2-0.6-0.2-1.1
		c0-1,0.3-1.9,0.9-2.9c0.7-1.1,1.5-1.6,2.4-1.6c0.3,0,0.6,0.1,0.7,0.2s0.2,0.4,0.2,0.7c0,0.3-0.1,0.6-0.3,0.9s-0.6,0.6-1.1,0.9
		c-0.3,0.2-0.8,0.4-1.7,0.8c0,0.2-0.1,0.5-0.1,0.7c0,0.3,0,0.6,0.1,0.7c0.1,0.1,0.2,0.2,0.4,0.2s0.4-0.1,0.6-0.2
		C319.6,105.8,320,105.5,320.6,105.1z M318.2,104.1c0.7-0.3,1.3-0.7,1.6-1.1c0.2-0.3,0.4-0.5,0.4-0.8c0-0.2,0-0.3-0.1-0.5
		c-0.1-0.1-0.2-0.2-0.4-0.2c-0.2,0-0.3,0.1-0.5,0.2c-0.2,0.2-0.4,0.4-0.5,0.8C318.4,103.1,318.3,103.6,318.2,104.1z"/>
	<path class="st0" d="M325.4,101.1c0.4,0,0.7,0.1,0.9,0.2c0.2,0.2,0.3,0.3,0.3,0.5c0,0.1,0,0.2-0.1,0.3c-0.1,0.1-0.2,0.1-0.3,0.1
		c-0.1,0-0.2,0-0.2-0.1s-0.1-0.1-0.3-0.3c-0.2-0.3-0.4-0.4-0.7-0.4c-0.2,0-0.4,0.1-0.5,0.2s-0.2,0.3-0.2,0.5c0,0.2,0,0.4,0.1,0.5
		c0.1,0.2,0.3,0.5,0.7,0.8c0.5,0.5,0.8,1,0.8,1.5s-0.2,0.9-0.6,1.3c-0.4,0.4-0.9,0.5-1.6,0.5c-0.5,0-0.9-0.1-1.2-0.3
		s-0.4-0.5-0.4-0.8c0-0.2,0-0.3,0.1-0.4s0.2-0.2,0.4-0.2c0.1,0,0.2,0,0.3,0.1c0.1,0.1,0.1,0.2,0.1,0.3c0,0.1,0,0.1,0,0.2
		c0,0.1,0,0.1,0,0.2c0,0.2,0.1,0.3,0.2,0.4c0.1,0.1,0.3,0.2,0.5,0.2c0.2,0,0.5,0,0.6-0.1s0.3-0.2,0.4-0.4s0.2-0.3,0.2-0.5
		s0-0.3-0.1-0.5c-0.1-0.2-0.3-0.4-0.6-0.8c-0.5-0.5-0.7-1-0.7-1.5c0-0.4,0.2-0.8,0.5-1.2C324.4,101.3,324.9,101.1,325.4,101.1z"/>
	<path class="st0" d="M329.5,100.1l1.1-0.4l-0.5,1.9h1.4l-0.1,0.5H330l-0.6,2.3c-0.2,0.7-0.3,1.2-0.3,1.4c0,0.1,0,0.2,0.1,0.3
		s0.1,0.1,0.2,0.1c0.1,0,0.4-0.1,0.6-0.2c0.4-0.2,0.7-0.5,1.1-0.8l0.3,0.3c-1,0.8-1.6,1.2-2,1.4c-0.3,0.2-0.6,0.2-0.8,0.2
		c-0.2,0-0.3-0.1-0.4-0.2s-0.1-0.3-0.1-0.6c0-0.3,0.1-0.8,0.3-1.5l0.7-2.7h-1.1l0.1-0.5h1.1L329.5,100.1z"/>
	<path class="st0" d="M337.3,101l0.5-0.1l-0.5,1.7c-0.2,0.7-0.4,1.5-0.6,2.4c-0.1,0.5-0.1,0.8-0.1,0.9s0.1,0.2,0.2,0.2
		c0.1,0,0.2-0.1,0.4-0.1c0.3-0.2,0.5-0.4,0.8-0.6l0.2,0.3c-0.5,0.5-0.9,0.8-1,0.9c-0.3,0.2-0.6,0.3-0.8,0.4
		c-0.2,0.1-0.3,0.1-0.5,0.1c-0.1,0-0.2,0-0.3-0.1c-0.1-0.1-0.1-0.1-0.1-0.2c0-0.1,0-0.2,0-0.3l0.3-0.9c-0.4,0.5-0.9,0.9-1.4,1.2
		c-0.3,0.2-0.6,0.3-0.9,0.3c-0.3,0-0.5-0.1-0.6-0.3c-0.2-0.2-0.3-0.6-0.3-1c0-0.5,0.1-1,0.4-1.6c0.3-0.6,0.6-1.1,1-1.6
		s0.9-0.8,1.4-1.1c0.4-0.2,0.8-0.3,1.4-0.3c0.1,0,0.3,0,0.4,0L337.3,101z M336.5,102c-0.2-0.1-0.5-0.1-0.6-0.1
		c-0.4,0-0.8,0.1-1.1,0.3s-0.6,0.6-0.8,1.2s-0.4,1.2-0.4,1.7c0,0.3,0,0.5,0.2,0.7c0.1,0.1,0.2,0.2,0.4,0.2c0.3,0,0.6-0.2,1-0.5
		s0.6-0.8,0.8-1.5L336.5,102z"/>
	<path class="st0" d="M343.8,101.3h1l-0.6,2.4c-0.4,1.4-0.6,2.2-0.6,2.3c0,0.1,0,0.2,0.1,0.2c0,0.1,0.1,0.1,0.1,0.1
		c0.1,0,0.2,0,0.3-0.1c0.1-0.1,0.4-0.4,0.9-0.8l0.2,0.2c-0.9,0.9-1.6,1.4-2,1.4c-0.1,0-0.3-0.1-0.4-0.2s-0.1-0.3-0.1-0.5
		c0-0.2,0-0.6,0.1-0.9c-0.4,0.5-0.9,0.9-1.5,1.2c-0.4,0.2-0.7,0.3-1,0.3c-0.2,0-0.3-0.1-0.4-0.2s-0.1-0.3-0.1-0.5
		c0-0.2,0-0.4,0.1-0.6c0.1-0.3,0.2-0.9,0.5-1.7c0.3-1.1,0.5-1.8,0.5-2c0-0.1,0-0.2-0.1-0.2c-0.1,0-0.2,0-0.3,0.1s-0.4,0.3-0.7,0.6
		l-0.3-0.2c0.6-0.5,1.1-0.9,1.4-1.1s0.6-0.2,0.8-0.2c0.1,0,0.2,0,0.3,0.1c0.1,0.1,0.1,0.2,0.1,0.4c0,0.3-0.2,1.1-0.5,2.3
		c-0.3,1.1-0.4,1.7-0.4,1.9c0,0.1,0,0.2,0.1,0.2c0.1,0.1,0.1,0.1,0.2,0.1c0.2,0,0.6-0.2,1.1-0.6s0.8-0.9,0.9-1.4L343.8,101.3z"/>
	<path class="st0" d="M347.6,106.8h-1l0.5-1.8c0.2-0.9,0.4-1.8,0.6-2.6c0-0.2,0.1-0.3,0.1-0.4c0-0.1,0-0.2-0.1-0.2
		c-0.1,0-0.2,0.1-0.3,0.1c-0.1,0.1-0.4,0.3-0.8,0.7l-0.2-0.2c0.4-0.5,0.9-0.8,1.3-1.1s0.8-0.3,1-0.3c0.1,0,0.1,0,0.2,0.1
		c0,0,0.1,0.1,0.1,0.2c0,0.1,0,0.2-0.1,0.5l-0.3,1.2c0.5-0.7,1-1.3,1.5-1.8c0.3-0.2,0.5-0.4,0.7-0.4c0.1,0,0.2,0,0.3,0.1
		s0.1,0.2,0.1,0.3c0,0.1,0,0.2-0.1,0.3s-0.3,0.2-0.7,0.3c-0.3,0.1-0.6,0.2-0.8,0.4c-0.2,0.2-0.4,0.4-0.7,0.7s-0.4,0.6-0.5,0.8
		s-0.2,0.8-0.5,1.7L347.6,106.8z"/>
	<path class="st0" d="M355.8,101l0.5-0.1l-0.5,1.7c-0.2,0.7-0.4,1.5-0.6,2.4c-0.1,0.5-0.1,0.8-0.1,0.9s0.1,0.2,0.2,0.2
		c0.1,0,0.2-0.1,0.4-0.1c0.3-0.2,0.5-0.4,0.8-0.6l0.2,0.3c-0.5,0.5-0.9,0.8-1,0.9c-0.3,0.2-0.6,0.3-0.8,0.4
		c-0.2,0.1-0.3,0.1-0.5,0.1c-0.1,0-0.2,0-0.3-0.1c-0.1-0.1-0.1-0.1-0.1-0.2c0-0.1,0-0.2,0-0.3l0.3-0.9c-0.4,0.5-0.9,0.9-1.4,1.2
		c-0.3,0.2-0.6,0.3-0.9,0.3c-0.3,0-0.5-0.1-0.6-0.3c-0.2-0.2-0.3-0.6-0.3-1c0-0.5,0.1-1,0.4-1.6c0.3-0.6,0.6-1.1,1-1.6
		c0.4-0.5,0.9-0.8,1.4-1.1c0.4-0.2,0.8-0.3,1.4-0.3c0.1,0,0.3,0,0.4,0L355.8,101z M355,102c-0.2-0.1-0.5-0.1-0.6-0.1
		c-0.4,0-0.8,0.1-1.1,0.3s-0.6,0.6-0.8,1.2s-0.4,1.2-0.4,1.7c0,0.3,0,0.5,0.2,0.7c0.1,0.1,0.2,0.2,0.4,0.2c0.3,0,0.6-0.2,1-0.5
		s0.6-0.8,0.8-1.5L355,102z"/>
	<path class="st0" d="M357.9,102.7l-0.2-0.2c0.6-0.6,1-0.9,1.4-1.1c0.3-0.2,0.6-0.3,0.9-0.3c0.1,0,0.2,0,0.2,0.1s0.1,0.1,0.1,0.1
		c0,0,0,0.1,0,0.2l-0.3,1.4c0.5-0.5,1-1,1.7-1.4c0.4-0.2,0.7-0.3,0.9-0.3c0.2,0,0.3,0.1,0.4,0.2s0.1,0.3,0.1,0.5
		c0,0.1,0,0.3-0.1,0.5c-0.1,0.3-0.3,0.9-0.6,1.9c-0.3,0.9-0.4,1.5-0.4,1.8c0,0.1,0,0.2,0,0.2c0,0.1,0.1,0.1,0.1,0.1
		c0.1,0,0.3-0.1,0.6-0.4c0.2-0.2,0.4-0.3,0.6-0.5l0.2,0.2c-0.4,0.5-0.9,0.8-1.3,1.1c-0.3,0.2-0.5,0.3-0.7,0.3
		c-0.2,0-0.3-0.1-0.4-0.2s-0.1-0.3-0.1-0.6c0-0.4,0.2-1.4,0.8-3c0.1-0.6,0.2-0.9,0.2-1c0-0.1-0.1-0.2-0.2-0.2
		c-0.2,0-0.4,0.1-0.7,0.3c-0.4,0.3-0.8,0.6-1.1,1c-0.2,0.2-0.3,0.6-0.5,1.2l-0.5,2.4h-1c0.2-0.7,0.4-1.3,0.5-1.9l0.6-2.6
		c0-0.1,0-0.2,0-0.2c0-0.1,0-0.2-0.1-0.2c-0.1,0-0.2,0.1-0.3,0.1C358.4,102.2,358.2,102.4,357.9,102.7z"/>
	<path class="st0" d="M366.7,100.1l1.1-0.4l-0.5,1.9h1.4l-0.1,0.5h-1.4l-0.6,2.3c-0.2,0.7-0.3,1.2-0.3,1.4c0,0.1,0,0.2,0.1,0.3
		s0.1,0.1,0.2,0.1c0.1,0,0.4-0.1,0.6-0.2c0.4-0.2,0.7-0.5,1.1-0.8l0.3,0.3c-1,0.8-1.6,1.2-2,1.4c-0.3,0.2-0.6,0.2-0.8,0.2
		c-0.2,0-0.3-0.1-0.4-0.2s-0.1-0.3-0.1-0.6c0-0.3,0.1-0.8,0.3-1.5l0.7-2.7h-1.1l0.1-0.5h1.1L366.7,100.1z"/>
</g>
<rect x="187.5" y="90.2" class="st0" width="213.3" height="1"/>
</svg>
