<?xml version="1.0" encoding="utf-8"?>
<!-- Generator: Adobe Illustrator 25.0.1, SVG Export Plug-In . SVG Version: 6.00 Build 0)  -->
<svg version="1.1" id="Layer_1" xmlns="http://www.w3.org/2000/svg" xmlns:xlink="http://www.w3.org/1999/xlink" x="0px" y="0px"
	 viewBox="0 0 80 80" style="enable-background:new 0 0 80 80;" xml:space="preserve">
<style type="text/css">
	.st0{fill:#331822;}
	.st1{fill:#F7E9D1;}
</style>
<g>
	<path class="st0" d="M74.78,78.5H5.22c-2.05,0-3.72-1.67-3.72-3.72V5.22c0-2.05,1.67-3.72,3.72-3.72h69.56
		c2.05,0,3.72,1.67,3.72,3.72v69.56C78.5,76.83,76.83,78.5,74.78,78.5z"/>
	<path class="st1" d="M9.48,68.99c3.16-2.42,1.69-6.76,0.22-9.7c-0.95-1.91-1.98-3.82-2.2-5.95c-0.07-0.37-0.07-0.81-0.07-1.18
		c0.29,1.1,0.88,2.13,2.13,2.64c1.1,0.44,2.42,0.22,3.31-0.66c0.15-0.22,0.29-0.37,0.44-0.59c0.73-1.1,0.66-2.86-0.88-3.16
		c-1.03-0.15-2.28,0.81-1.47,1.84c0.15,0.15,0.29,0.22,0.51,0.29c0.22,0.07,0.51,0,0.73,0.15c0.29,0.22,0.37,0.66,0.22,1.03
		c-0.29,0.66-1.4,0.66-1.91,0.37c-0.44-0.22-0.81-0.59-1.03-0.88c-2.28-3.16,0.44-7.05,2.35-9.62c1.76-2.35,3.75-4.85,4.77-7.71
		c1.69-4.77,1.25-10.21-1.32-14.62c-1.03-1.69-2.57-3.16-3.45-4.92c-0.22-0.37-0.37-0.81-0.44-1.18c0-0.95,0.37-1.84,1.32-2.35
		c0.81-0.15,1.69,0.15,2.2,0.73c0.44,0.59,0.59,1.18,0.73,1.84c0.07,0.51,0.73,0.88,1.18,0.44c0.44-0.51,0.07-1.62-0.22-2.13
		c-0.51-0.95-1.54-1.62-2.64-1.62c-0.37,0-0.73,0.07-1.1,0.22c-0.15,0.07-0.37,0.07-0.51,0.15c0.59-0.44,1.25-0.73,2.06-0.88
		c0.95-0.22,1.98,0,2.86,0.51c0.37,0.22,0.81,0.51,1.1,0.88c0.29,0.29,0.51,0.73,0.81,1.03c0.51,0.59,1.62,0.29,1.69-0.51
		c0.15-0.88-0.88-1.47-1.47-1.91s-1.32-0.81-2.06-1.03c-1.47-0.44-3.16-0.29-4.48,0.59c-0.66,0.44-1.18,0.95-1.62,1.62
		c0,0.07-0.07,0.07-0.07,0.15v0.07c-0.59,0.95-0.95,2.06-1.03,3.23c-0.15,2.28,0.88,4.19,1.47,6.32c0.37,1.4,0.51,2.94,0.22,4.41
		c-0.15,0.73-0.37,1.4-0.73,2.06c-0.15,0.29-0.37,0.66-0.59,0.95c-0.15,0.15-0.22,0.29-0.37,0.44c-0.15,0.22,0,0.37,0.15,0.44
		c0.07,0,0.22,0,0.29,0c0.44-0.07,0.88-0.51,1.18-0.81c0.44-0.37,0.73-0.88,0.95-1.4c0.44-1.1,0.44-2.35,0.29-3.53
		c-0.07-0.37-0.15-0.73-0.22-1.1c-0.44-1.47-1.25-3.09-1.84-4.7c-0.07-0.15-0.07-0.37-0.15-0.51c0.15,0.37,0.29,0.73,0.51,1.1
		c1.1,2.13,1.98,4.41,2.5,6.76c0.07,0.29,0,0.88,0.44,0.81c0.37-0.07,0.44-0.73,0.44-1.03c0.07-0.88-0.37-1.84-0.73-2.64
		c-0.59-1.47-1.54-2.72-2.28-4.11c-0.66-1.25-0.88-2.86-0.66-4.26c0.07,0.22,0.07,0.44,0.15,0.59c0,0.15,0.07,0.29,0.07,0.37v0.07
		c0.15,0.37,0.29,0.73,0.44,1.03c0.88,1.69,2.2,3.23,3.01,4.92c1.84,3.67,1.03,8.23-2.06,11.02c-0.29,0.22-0.59,0.51-0.81,0.81
		c-0.29,0.37-0.37,1.18,0.07,1.25c0.07,0,0.15,0,0.29,0c0.59-0.15,1.18-0.81,1.62-1.25c0.81-0.81,1.4-1.76,1.84-2.86
		c0.81-2.28,0.81-4.77,0.22-7.05c-0.07-0.44-0.29-0.95-0.44-1.4c0.07,0.15,0.15,0.22,0.22,0.37c0.81,1.76,1.32,3.67,1.47,5.66
		c0.29,3.6-1.18,7.13-2.94,10.14c-0.88,1.54-1.98,3.01-3.09,4.41c-2.06,2.2-3.82,4.7-4.19,7.79c-0.22,1.84,0.22,3.53,0.88,5.14
		c0.22,0.44,0.37,0.88,0.59,1.32C8.97,59,9.63,60.25,10,61.64c0.73,2.42,0.44,5-0.73,7.27C9.19,69.06,9.41,69.28,9.48,68.99z"/>
	<path class="st1" d="M72.34,68.87c-1.18-2.2-1.47-4.85-0.73-7.27c0.44-1.32,1.03-2.64,1.62-3.97c0.22-0.44,0.44-0.88,0.59-1.32
		c0.66-1.62,1.1-3.31,0.88-5.14c-0.37-3.09-2.13-5.58-4.19-7.79c-1.1-1.47-2.2-2.86-3.09-4.41c-1.76-3.01-3.23-6.54-2.94-10.14
		c0.15-1.91,0.66-3.89,1.47-5.66c0.07-0.15,0.15-0.22,0.22-0.37c-0.15,0.51-0.29,0.95-0.44,1.47c-0.66,2.28-0.66,4.85,0.22,7.05
		c0.37,1.1,1.03,2.06,1.84,2.86c0.44,0.44,1.03,1.1,1.62,1.25c0.07,0,0.22,0,0.29,0c0.44-0.07,0.29-0.88,0.07-1.25
		c-0.22-0.29-0.51-0.51-0.81-0.81c-3.09-2.79-3.89-7.27-2.06-11.02c0.81-1.69,2.13-3.23,3.01-4.92c0.22-0.37,0.37-0.66,0.44-1.03
		v-0.07c0-0.15,0.07-0.29,0.07-0.37c0.07-0.22,0.15-0.37,0.15-0.59c0.29,1.4,0,3.01-0.66,4.26c-0.73,1.4-1.69,2.64-2.28,4.11
		c-0.29,0.81-0.73,1.69-0.73,2.64c0,0.29,0.07,0.95,0.44,1.03c0.44,0.07,0.37-0.59,0.44-0.81c0.51-2.35,1.4-4.63,2.5-6.76
		c0.15-0.37,0.37-0.73,0.51-1.1c0,0.15-0.07,0.37-0.15,0.51c-0.59,1.69-1.4,3.31-1.84,4.77c-0.07,0.37-0.15,0.73-0.22,1.1
		c-0.22,1.18-0.15,2.42,0.29,3.53c0.22,0.59,0.51,1.1,0.95,1.47c0.29,0.29,0.73,0.73,1.18,0.81c0.15,0,0.22,0,0.29,0
		c0.22-0.07,0.29-0.22,0.15-0.44c-0.07-0.15-0.22-0.29-0.37-0.44c-0.22-0.29-0.44-0.59-0.59-0.95c-0.37-0.66-0.59-1.32-0.73-2.06
		c-0.29-1.47-0.22-3.01,0.22-4.41c0.59-2.13,1.62-4.04,1.47-6.32c-0.07-1.18-0.44-2.28-1.03-3.23v-0.07c0-0.07,0-0.15-0.07-0.15
		c-0.37-0.59-0.95-1.18-1.62-1.62c-1.32-0.81-2.94-1.03-4.48-0.59c-0.73,0.22-1.47,0.51-2.06,1.03c-0.59,0.44-1.54,1.03-1.47,1.91
		c0.07,0.81,1.18,1.1,1.69,0.51c0.29-0.29,0.51-0.66,0.81-1.03c0.29-0.29,0.66-0.66,1.1-0.88c0.88-0.44,1.91-0.66,2.86-0.51
		c0.81,0.07,1.54,0.44,2.06,0.88c-0.15-0.07-0.29-0.15-0.51-0.15c-0.37-0.15-0.73-0.22-1.1-0.22c-1.1,0-2.13,0.66-2.64,1.62
		c-0.29,0.51-0.73,1.62-0.22,2.13c0.37,0.44,1.03,0.07,1.18-0.44c0.15-0.73,0.29-1.32,0.73-1.84c0.51-0.59,1.4-0.88,2.2-0.73
		c0.88,0.51,1.32,1.4,1.32,2.35c-0.07,0.44-0.29,0.81-0.44,1.18c-0.88,1.76-2.42,3.16-3.45,4.92c-2.57,4.41-3.09,9.84-1.32,14.62
		c1.03,2.86,3.01,5.36,4.77,7.71c1.91,2.57,4.63,6.46,2.35,9.62c-0.22,0.29-0.59,0.66-1.03,0.88c-0.51,0.29-1.62,0.22-1.91-0.37
		c-0.22-0.37-0.07-0.81,0.22-1.03c0.22-0.15,0.51-0.07,0.73-0.15c0.22-0.07,0.37-0.22,0.51-0.37c0.73-1.03-0.44-2.06-1.47-1.84
		c-1.47,0.29-1.54,2.06-0.88,3.16c0.15,0.22,0.29,0.44,0.44,0.59c0.88,0.88,2.2,1.1,3.31,0.66c1.25-0.51,1.91-1.47,2.13-2.64
		c0,0.37,0,0.81-0.07,1.18c-0.22,2.2-1.25,4.04-2.2,5.95c-1.54,2.94-3.01,7.27,0.22,9.7C72.27,69.23,72.49,69.01,72.34,68.87z"/>
	<g>
		<path class="st1" d="M45.82,8.5c0.42,0,0.7,0.42,0.84,1.26c0.14,0.84,0.28,1.54,0.28,2.24c0,0.7-0.14,0.98-0.7,0.98
			c-0.14,0-0.28,0-0.42-0.14s-0.28-0.42-0.56-1.12c-0.14-0.56-0.56-0.98-0.98-1.26c-0.42-0.28-0.84-0.28-1.4-0.28
			c-0.7,0-1.26,0.14-1.54,0.56c-0.28,0.28-0.42,0.98-0.42,1.68v17.9c0,0.28,0,0.56,0.28,0.7c0.14,0.28,0.42,0.42,0.98,0.56
			c0.56,0.14,0.84,0.28,0.84,0.42c0.14,0.14,0.14,0.28,0.14,0.42c0,0.56-0.28,0.84-0.84,0.84c-0.28,0-0.84,0-1.4-0.14
			c-0.56-0.14-1.12-0.14-1.4-0.14s-0.7,0-1.26,0.14c-0.56,0.14-0.98,0.14-1.26,0.14c-0.28,0-0.56-0.14-0.84-0.28
			s-0.28-0.42-0.28-0.7c0-0.14,0-0.28,0.14-0.42s0.42-0.28,0.84-0.42c0.42-0.14,0.84-0.42,0.98-0.7c0.14-0.28,0.28-0.7,0.28-1.12
			V11.44c0-1.12-0.7-1.68-2.1-1.68c-0.84,0-1.54,0.28-1.96,0.7c-0.28,0.28-0.42,0.7-0.56,1.12c-0.14,0.56-0.14,0.84-0.28,0.98
			c-0.14,0.14-0.28,0.14-0.42,0.14c-0.14,0-0.28,0-0.56-0.14c-0.14-0.14-0.28-0.28-0.28-0.42c0-1.26,0.14-2.24,0.28-2.94
			c0.14-0.7,0.56-0.98,0.84-0.98C33.52,8.5,45.82,8.5,45.82,8.5z"/>
	</g>
	<path class="st1" d="M35.48,38.14c0.56,0,0.84,0.14,0.98,0.28c0.14,0.14,0.28,0.42,0.28,0.98c0.14,0.42,0.14,0.98,0.28,1.4
		c0.14,0.42,0.14,0.84,0.14,1.12c0,0.84-0.28,1.4-0.98,1.4c-0.14,0-0.28,0-0.42-0.28c-0.14-0.14-0.28-0.56-0.56-1.26
		c-0.28-0.7-0.42-1.12-0.7-1.4s-0.42-0.28-0.7-0.28h-5.73c-0.98,0-1.68,0.14-1.96,0.42c-0.28,0.28-0.42,0.7-0.42,1.26v4.75
		c0,0.98,0.14,1.68,0.42,2.1c0.28,0.42,0.84,0.56,1.96,0.56h5.45c0.42,0,0.84-0.14,0.98-0.56c0.14-0.42,0.28-0.84,0.28-1.4
		c0-0.28,0.14-0.42,0.28-0.56c0.14-0.14,0.28-0.28,0.56-0.28s0.42,0.14,0.56,0.28c0.14,0.14,0.28,0.42,0.28,0.7c0,0.28,0,0.7,0,1.4
		s0,1.12,0,1.4c0,0.56,0,1.12,0.14,1.82c0.14,0.7,0.14,0.98,0.14,1.12c0,0.28-0.14,0.56-0.28,0.84c-0.14,0.28-0.28,0.28-0.56,0.28
		s-0.42-0.14-0.56-0.42c-0.14-0.28-0.28-0.56-0.28-1.12c0-1.12-0.56-1.54-1.82-1.54h-5.45c-0.7,0-1.12,0.14-1.4,0.28
		c-0.28,0.28-0.28,0.56-0.28,0.98v13.14c0,0.56,0.14,1.12,0.42,1.54c0.28,0.42,0.84,0.84,1.68,0.98c0.84,0.28,1.4,0.42,1.54,0.7
		c0.14,0.28,0.28,0.42,0.28,0.7c0,0.56-0.28,0.84-0.84,0.84c-0.28,0-0.84-0.14-1.54-0.28c-0.84-0.28-1.54-0.28-2.24-0.28
		c-1.26,0-2.38,0.14-3.22,0.42s-1.4,0.42-1.68,0.42c-0.84,0-1.26-0.42-1.26-1.12c0-0.14,0.14-0.42,0.28-0.56
		c0.14-0.14,0.56-0.28,1.26-0.56c0.7-0.28,1.26-0.42,1.4-0.84c0.14-0.42,0.42-0.7,0.42-1.12V46.11c0-2.1,0-3.5-0.14-4.19
		c-0.14-0.7-0.28-1.26-0.56-1.4c-0.28-0.14-0.84-0.28-1.54-0.28c-0.56,0-0.84-0.14-1.12-0.28c-0.28-0.14-0.42-0.42-0.42-0.7
		s0.14-0.56,0.28-0.7s0.56-0.28,0.84-0.28L35.48,38.14L35.48,38.14z"/>
	<path class="st1" d="M52.4,50.87c-0.28,0.42-0.42,0.7-0.42,0.84c0,0.14,0,0.28,0.14,0.42l10.63,15.24c0.28,0.42,0.7,0.7,1.12,0.84
		c0.42,0.14,0.7,0.28,0.98,0.28s0.56,0.14,0.7,0.28s0.28,0.42,0.28,0.56c0,0.42-0.14,0.7-0.56,0.98c-0.42,0.28-0.7,0.28-1.26,0.28
		c-1.12,0-2.24-0.42-3.5-1.4c-1.26-0.84-2.38-2.1-3.5-3.5L49.6,55.2c-0.14-0.28-0.28-0.28-0.28-0.28s-0.14,0.14-0.28,0.28
		l-2.66,3.64c-0.14,0.14-0.14,0.42-0.14,0.56v7.27c0,0.42,0.14,0.7,0.28,0.98c0.14,0.28,0.7,0.56,1.26,0.7
		c0.7,0.14,0.98,0.28,1.12,0.42c0.14,0.14,0.14,0.42,0.14,0.56c0,0.28-0.14,0.56-0.56,0.7c-0.42,0.14-0.84,0.28-1.54,0.28
		c-0.28,0-0.7-0.14-1.4-0.28c-0.7-0.14-1.12-0.28-1.54-0.28c-0.56,0-1.26,0.14-1.96,0.28c-0.7,0.14-1.26,0.28-1.68,0.28
		c-0.28,0-0.7-0.14-0.98-0.28c-0.28-0.14-0.42-0.42-0.42-0.84c0-0.28,0-0.42,0.14-0.56s0.56-0.28,1.4-0.28
		c0.7-0.14,1.26-0.28,1.54-0.84c0.28-0.56,0.28-0.98,0.28-1.68V42.9c0-0.56-0.14-1.12-0.28-1.54c-0.28-0.42-0.7-0.7-1.4-0.84
		c-0.7-0.14-1.12-0.28-1.26-0.42c-0.14-0.14-0.14-0.42-0.14-0.7s0.14-0.56,0.42-0.84c0.28-0.28,0.7-0.42,1.26-0.42
		s1.12,0.14,1.96,0.28c0.7,0.14,1.4,0.28,1.96,0.28c0.28,0,0.7-0.14,1.26-0.28c0.56-0.14,1.12-0.28,1.82-0.28
		c0.56,0,0.98,0.14,1.26,0.28c0.28,0.28,0.56,0.42,0.56,0.7s-0.14,0.42-0.28,0.56c-0.14,0.14-0.56,0.28-1.12,0.56
		c-0.56,0.14-0.98,0.28-1.26,0.42c-0.28,0.14-0.42,0.42-0.56,0.7c-0.14,0.28-0.28,0.84-0.28,1.54v12.02v0.42l0.28-0.28l9.23-13
		c0.42-0.56,0.7-1.12,0.7-1.4c0-0.14,0-0.28-0.28-0.42c-0.14-0.14-0.56-0.14-1.12-0.28c-0.56-0.14-0.98-0.14-1.12-0.28
		c-0.14-0.14-0.28-0.42-0.28-0.7c0-0.28,0.14-0.56,0.42-0.84c0.28-0.28,0.7-0.28,1.12-0.28s0.84,0,1.4,0.14
		c0.56,0.14,0.98,0.14,1.12,0.14c0.28,0,0.7,0,1.4-0.14c0.7-0.14,1.12-0.14,1.54-0.14c0.42,0,0.7,0.14,0.84,0.28
		c0.28,0.28,0.28,0.42,0.28,0.84c0,0.14,0,0.28-0.14,0.42s-0.56,0.28-1.4,0.56c-0.84,0.28-1.4,0.7-1.82,1.26L52.4,50.87z"/>
</g>
</svg>
