<?xml version="1.0" encoding="utf-8"?>
<!-- Generator: Adobe Illustrator 25.0.1, SVG Export Plug-In . SVG Version: 6.00 Build 0)  -->
<svg version="1.1" id="Layer_1" xmlns="http://www.w3.org/2000/svg" xmlns:xlink="http://www.w3.org/1999/xlink" x="0px" y="0px"
	 viewBox="0 0 612 137.83" style="enable-background:new 0 0 612 137.83;" xml:space="preserve">
<style type="text/css">
	.st0{fill:#010101;}
	.st1{fill:none;stroke:#010101;stroke-miterlimit:10;}
</style>
<g>
	<path class="st0" d="M187.54,51.28c3.06-1.6,6.61-1.97,9.94-1.02c1.87,0.53,3.64,1.38,5.43,2.17c0.58,0.28,1.17,0.53,1.76,0.75
		c2.21,0.89,4.47,1.52,6.96,1.22c4.17-0.5,7.56-2.93,10.58-5.7c1.95-1.46,3.88-2.96,5.97-4.19c4.14-2.44,8.95-4.37,13.84-4
		c2.67,0.2,5.29,0.87,7.73,1.96c0.16,0.09,0.33,0.18,0.49,0.28c-0.64-0.25-1.29-0.47-1.95-0.64c-3.11-0.8-6.54-0.8-9.56,0.35
		c-1.47,0.56-2.83,1.41-3.91,2.55c-0.56,0.59-1.46,1.36-1.66,2.19c-0.04,0.17-0.04,0.31-0.01,0.43c0.15,0.64,1.22,0.47,1.72,0.13
		c0.44-0.3,0.78-0.72,1.13-1.12c3.8-4.21,9.96-5.32,15.03-2.84c2.33,1.14,4.37,2.94,6.7,4.11c0.43,0.24,0.88,0.44,1.35,0.59
		c0.04,0.02,0.09,0.03,0.13,0.05c0.15,0.05,0.3,0.09,0.45,0.13c0.25,0.07,0.51,0.12,0.77,0.16c-1.93,0.35-4.08,0.01-5.8-0.92
		c-1.88-1.02-3.62-2.31-5.62-3.11c-1.14-0.46-2.38-1.06-3.64-1.02c-0.4,0.01-1.28,0.1-1.37,0.6c-0.11,0.58,0.74,0.5,1.09,0.57
		c3.22,0.67,6.26,1.86,9.17,3.4c0.48,0.27,0.98,0.51,1.48,0.73c-0.25-0.07-0.5-0.14-0.74-0.21c-2.22-0.75-4.41-1.87-6.45-2.47
		c-0.48-0.14-0.96-0.25-1.46-0.32c-1.6-0.25-3.32-0.19-4.84,0.43c-0.73,0.29-1.4,0.72-1.95,1.29c-0.42,0.44-0.96,1-1.1,1.62
		c-0.03,0.14-0.03,0.28,0.01,0.39c0.08,0.23,0.29,0.36,0.58,0.16c0.22-0.15,0.41-0.35,0.63-0.51c0.41-0.3,0.85-0.57,1.3-0.81
		c0.88-0.47,1.83-0.8,2.8-1.01c1.99-0.41,4.07-0.25,6.01,0.32c2.86,0.85,5.53,2.21,8.59,2.01c1.56-0.1,3.07-0.57,4.36-1.38
		c0.03-0.01,0.06-0.01,0.09-0.02c0.09-0.03,0.14-0.08,0.16-0.14c0.87-0.59,1.62-1.34,2.21-2.25c1.17-1.81,1.42-4.08,0.84-6.14
		c-0.29-1.03-0.78-2.01-1.44-2.85c-0.61-0.79-1.38-2.15-2.56-2.03c-1.12,0.12-1.45,1.57-0.7,2.31c0.42,0.42,0.99,0.68,1.44,1.08
		c0.5,0.44,0.92,0.96,1.25,1.54c0.67,1.17,0.95,2.57,0.73,3.9c-0.18,1.13-0.63,2.05-1.24,2.78c0.09-0.24,0.15-0.49,0.17-0.74
		c0.18-0.47,0.28-0.98,0.27-1.5c-0.02-1.51-0.89-2.9-2.22-3.6c-0.7-0.37-2.2-0.93-2.9-0.27c-0.59,0.56-0.07,1.47,0.64,1.61
		c0.91,0.19,1.73,0.36,2.46,1.01c0.83,0.73,1.25,1.93,1.03,2.99c-0.67,1.27-1.87,1.85-3.16,1.85c-0.54-0.13-1.07-0.33-1.58-0.58
		c-2.44-1.2-4.35-3.29-6.7-4.66c-5.97-3.49-13.38-4.14-19.88-1.77c-3.89,1.42-7.26,4.1-10.49,6.52c-3.5,2.62-8.79,6.33-13.11,3.2
		c-0.4-0.29-0.88-0.81-1.22-1.39c-0.41-0.7-0.36-2.22,0.46-2.62c0.46-0.22,1.08-0.08,1.36,0.35c0.19,0.29,0.11,0.7,0.19,1.02
		c0.07,0.28,0.22,0.52,0.45,0.7c1.37,1.06,2.74-0.59,2.47-1.96c-0.42-2.08-2.82-2.15-4.34-1.25c-0.29,0.17-0.54,0.37-0.77,0.6
		c-1.16,1.16-1.54,2.99-0.9,4.51c0.7,1.66,2.06,2.54,3.62,2.87c-0.54,0.01-1.08-0.01-1.62-0.07c-2.94-0.3-5.51-1.72-8.09-3.05
		c-4-2.05-9.95-4.05-13.23,0.34C186.96,51.14,187.27,51.42,187.54,51.28z"/>
	<path class="st0" d="M401.03,50.87c-3.28-4.4-9.23-2.39-13.23-0.34c-2.59,1.32-5.15,2.74-8.09,3.05c-0.54,0.06-1.08,0.08-1.62,0.07
		c1.56-0.33,2.92-1.21,3.62-2.87c0.64-1.52,0.26-3.35-0.9-4.51c-0.23-0.23-0.49-0.43-0.77-0.6c-1.53-0.9-3.93-0.83-4.34,1.25
		c-0.27,1.37,1.1,3.02,2.47,1.96c0.23-0.18,0.38-0.42,0.45-0.7c0.08-0.32,0-0.73,0.19-1.02c0.28-0.43,0.91-0.57,1.36-0.35
		c0.83,0.41,0.88,1.92,0.46,2.62c-0.34,0.58-0.82,1.11-1.22,1.39c-4.31,3.13-9.61-0.58-13.11-3.2c-3.23-2.42-6.6-5.1-10.49-6.52
		c-6.5-2.38-13.91-1.72-19.88,1.77c-2.35,1.37-4.26,3.46-6.7,4.66c-0.51,0.25-1.04,0.45-1.58,0.58c-1.29,0-2.49-0.58-3.16-1.85
		c-0.22-1.06,0.2-2.26,1.03-2.99c0.73-0.64,1.54-0.82,2.46-1.01c0.7-0.15,1.23-1.06,0.64-1.61c-0.7-0.66-2.2-0.1-2.9,0.27
		c-1.33,0.71-2.2,2.09-2.22,3.6c-0.01,0.53,0.09,1.04,0.27,1.5c0.02,0.26,0.08,0.51,0.17,0.74c-0.62-0.73-1.06-1.65-1.24-2.78
		c-0.22-1.33,0.06-2.73,0.73-3.9c0.33-0.58,0.75-1.1,1.25-1.54c0.45-0.39,1.01-0.66,1.44-1.08c0.75-0.74,0.41-2.2-0.7-2.31
		c-1.18-0.12-1.95,1.24-2.56,2.03c-0.66,0.85-1.15,1.82-1.44,2.85c-0.58,2.06-0.33,4.32,0.84,6.14c0.59,0.91,1.35,1.66,2.21,2.25
		c0.03,0.06,0.08,0.12,0.16,0.14c0.03,0.01,0.06,0.01,0.09,0.02c1.29,0.81,2.8,1.27,4.36,1.38c3.06,0.2,5.73-1.16,8.59-2.01
		c1.94-0.58,4.02-0.74,6.01-0.32c0.97,0.2,1.92,0.54,2.8,1.01c0.45,0.24,0.89,0.51,1.3,0.81c0.22,0.16,0.41,0.36,0.63,0.51
		c0.29,0.2,0.5,0.07,0.58-0.16c0.04-0.11,0.04-0.25,0.01-0.39c-0.14-0.62-0.68-1.18-1.1-1.62c-0.54-0.57-1.22-1-1.95-1.29
		c-1.52-0.61-3.23-0.67-4.84-0.43c-0.49,0.08-0.98,0.18-1.46,0.32c-2.04,0.59-4.23,1.72-6.45,2.47c-0.25,0.08-0.5,0.15-0.74,0.21
		c0.5-0.21,1-0.46,1.48-0.73c2.9-1.53,5.95-2.73,9.17-3.4c0.34-0.07,1.2,0,1.09-0.57c-0.1-0.5-0.98-0.59-1.37-0.6
		c-1.26-0.03-2.49,0.57-3.64,1.02c-1.99,0.8-3.74,2.09-5.62,3.11c-1.73,0.93-3.87,1.27-5.8,0.92c0.26-0.03,0.52-0.08,0.77-0.16
		c0.15-0.04,0.3-0.08,0.45-0.13c0.05-0.02,0.09-0.03,0.13-0.05c0.47-0.14,0.92-0.35,1.35-0.59c2.32-1.17,4.37-2.97,6.7-4.11
		c5.08-2.48,11.23-1.37,15.03,2.84c0.36,0.39,0.69,0.82,1.13,1.12c0.5,0.34,1.57,0.51,1.72-0.13c0.03-0.11,0.03-0.26-0.01-0.43
		c-0.19-0.83-1.09-1.6-1.66-2.19c-1.08-1.14-2.44-1.99-3.91-2.55c-3.02-1.15-6.46-1.15-9.56-0.35c-0.66,0.17-1.31,0.38-1.95,0.64
		c0.16-0.1,0.32-0.19,0.49-0.28c2.44-1.08,5.06-1.76,7.73-1.96c4.89-0.37,9.7,1.56,13.84,4c2.09,1.23,4.02,2.73,5.97,4.19
		c3.02,2.77,6.41,5.21,10.58,5.7c2.49,0.3,4.76-0.34,6.96-1.22c0.59-0.22,1.18-0.48,1.76-0.75c1.79-0.8,3.57-1.64,5.43-2.17
		c3.32-0.95,6.87-0.58,9.94,1.02C400.93,51.42,401.23,51.14,401.03,50.87z"/>
</g>
<g>
	<path d="M285,31.77c0.26,0,0.46,0.29,0.62,0.86c0.16,0.57,0.24,1.1,0.24,1.59c0,0.49-0.15,0.74-0.45,0.74
		c-0.11,0-0.2-0.04-0.29-0.11c-0.09-0.07-0.21-0.33-0.36-0.76c-0.15-0.44-0.38-0.73-0.69-0.89c-0.3-0.16-0.64-0.23-1-0.23
		c-0.51,0-0.88,0.13-1.11,0.38c-0.23,0.25-0.34,0.66-0.34,1.24v12.8c0,0.19,0.05,0.36,0.16,0.51c0.11,0.15,0.34,0.28,0.68,0.39
		c0.35,0.11,0.56,0.2,0.63,0.29c0.08,0.08,0.11,0.18,0.11,0.28c0,0.42-0.21,0.64-0.62,0.64c-0.23,0-0.56-0.04-0.99-0.11
		c-0.44-0.07-0.76-0.11-0.97-0.11c-0.2,0-0.48,0.03-0.86,0.09c-0.38,0.06-0.66,0.09-0.86,0.09c-0.23,0-0.43-0.06-0.6-0.17
		c-0.17-0.11-0.25-0.27-0.25-0.48c0-0.1,0.03-0.19,0.09-0.26c0.06-0.08,0.26-0.17,0.6-0.28c0.34-0.11,0.57-0.28,0.68-0.5
		c0.12-0.23,0.18-0.48,0.18-0.76V34.06c0-0.78-0.49-1.17-1.47-1.17c-0.64,0-1.09,0.15-1.36,0.46c-0.17,0.18-0.29,0.45-0.36,0.82
		c-0.08,0.37-0.15,0.59-0.23,0.66c-0.08,0.07-0.18,0.1-0.29,0.1c-0.12,0-0.24-0.03-0.35-0.1c-0.11-0.07-0.17-0.15-0.17-0.26
		c0-0.88,0.07-1.56,0.21-2.06c0.14-0.5,0.35-0.74,0.62-0.74H285z"/>
	<path d="M290.43,47.57c0,0.2,0.06,0.37,0.17,0.53c0.11,0.16,0.35,0.29,0.7,0.39c0.35,0.1,0.56,0.2,0.63,0.27
		c0.07,0.08,0.11,0.17,0.11,0.27c0,0.09-0.07,0.18-0.22,0.26c-0.14,0.08-0.33,0.12-0.55,0.12c-0.17,0-0.45-0.03-0.85-0.09
		c-0.39-0.06-0.66-0.09-0.8-0.09c-0.21,0-0.49,0.03-0.85,0.08c-0.36,0.05-0.62,0.08-0.77,0.08c-0.49,0-0.74-0.14-0.74-0.41
		c0-0.16,0.04-0.27,0.12-0.32c0.08-0.05,0.24-0.09,0.46-0.13c0.23-0.03,0.41-0.12,0.56-0.25c0.15-0.13,0.22-0.41,0.22-0.84v-9.99
		c0-0.21-0.05-0.41-0.15-0.58c-0.1-0.17-0.32-0.3-0.67-0.39c-0.34-0.09-0.55-0.17-0.61-0.25c-0.07-0.08-0.1-0.18-0.1-0.3
		c0-0.08,0.05-0.15,0.15-0.23c0.1-0.07,0.23-0.11,0.37-0.11c0.27,0,0.59,0.03,0.98,0.08c0.38,0.05,0.69,0.08,0.92,0.08
		c0.23,0,0.52-0.02,0.86-0.07c0.34-0.05,0.66-0.07,0.97-0.07c0.33,0,0.49,0.12,0.49,0.37c0,0.16-0.04,0.27-0.13,0.32
		c-0.09,0.05-0.25,0.11-0.48,0.15c-0.23,0.05-0.43,0.14-0.58,0.28c-0.15,0.14-0.23,0.43-0.23,0.86V47.57z M299.25,47.57
		c0,0.21,0.06,0.41,0.18,0.58c0.12,0.17,0.35,0.3,0.7,0.39c0.35,0.09,0.56,0.17,0.63,0.24c0.07,0.07,0.1,0.16,0.1,0.26
		c0,0.09-0.07,0.18-0.22,0.26c-0.14,0.08-0.33,0.12-0.55,0.12c-0.17,0-0.45-0.03-0.85-0.09c-0.39-0.06-0.66-0.09-0.8-0.09
		c-0.21,0-0.49,0.03-0.85,0.08c-0.36,0.05-0.62,0.08-0.77,0.08c-0.49,0-0.74-0.14-0.74-0.41c0-0.16,0.04-0.27,0.13-0.32
		c0.09-0.05,0.25-0.09,0.48-0.13c0.23-0.03,0.43-0.12,0.58-0.25c0.15-0.13,0.23-0.41,0.23-0.84v-5.7c0-0.2-0.07-0.36-0.2-0.48
		c-0.13-0.11-0.44-0.17-0.92-0.17h-4.53c-0.39,0-0.63-0.04-0.74-0.11c-0.11-0.08-0.16-0.19-0.16-0.34c0-0.15,0.07-0.26,0.21-0.33
		c0.14-0.07,0.4-0.1,0.77-0.1h4.89c0.27,0,0.44-0.04,0.52-0.12c0.08-0.08,0.11-0.23,0.11-0.45c0-1.39-0.02-2.24-0.06-2.53
		c-0.04-0.29-0.32-0.51-0.86-0.64c-0.28-0.08-0.46-0.16-0.52-0.24c-0.07-0.08-0.1-0.18-0.1-0.3c0-0.08,0.05-0.15,0.15-0.23
		c0.1-0.07,0.23-0.11,0.37-0.11c0.27,0,0.59,0.03,0.98,0.08c0.38,0.05,0.69,0.08,0.92,0.08c0.23,0,0.52-0.02,0.86-0.07
		c0.34-0.05,0.66-0.07,0.97-0.07c0.33,0,0.49,0.12,0.49,0.37c0,0.16-0.04,0.27-0.12,0.32c-0.08,0.05-0.24,0.1-0.47,0.13
		c-0.23,0.04-0.43,0.13-0.59,0.27c-0.16,0.14-0.24,0.44-0.24,0.9V47.57z"/>
	<path d="M310.52,48.54c0.35,0,0.62-0.08,0.8-0.25s0.27-0.39,0.27-0.65c0-0.24,0.06-0.43,0.18-0.57c0.12-0.14,0.25-0.21,0.41-0.21
		c0.16,0,0.29,0.07,0.4,0.2c0.11,0.13,0.16,0.31,0.16,0.53c0,0.22,0.01,0.46,0.03,0.72c0.02,0.26,0.03,0.43,0.03,0.53
		c0,0.26-0.04,0.43-0.12,0.51c-0.08,0.08-0.28,0.12-0.61,0.12h-8.34c-0.58,0-0.99-0.04-1.2-0.12c-0.22-0.08-0.32-0.2-0.32-0.37
		c0-0.26,0.2-0.38,0.59-0.38c0.5,0,0.83-0.07,0.98-0.22c0.15-0.15,0.23-0.38,0.23-0.71v-8.68c0-0.94-0.02-1.56-0.05-1.86
		c-0.03-0.3-0.12-0.5-0.26-0.58c-0.14-0.09-0.41-0.13-0.83-0.13c-0.25,0-0.44-0.04-0.57-0.13c-0.13-0.09-0.2-0.2-0.2-0.33
		c0-0.12,0.06-0.23,0.18-0.32c0.12-0.09,0.26-0.14,0.44-0.14h7.94c0.32,0,0.52,0.06,0.62,0.18c0.1,0.12,0.17,0.3,0.21,0.53
		c0.04,0.23,0.07,0.62,0.07,1.16c0,0.25-0.11,0.37-0.34,0.37c-0.13,0-0.25-0.04-0.35-0.11c-0.1-0.07-0.21-0.26-0.33-0.55
		c-0.12-0.3-0.24-0.49-0.37-0.57c-0.13-0.08-0.27-0.12-0.44-0.12h-2.83c-0.48,0-0.78,0.06-0.9,0.19c-0.12,0.12-0.19,0.31-0.19,0.56
		v2.01c0,0.47,0.07,0.78,0.21,0.93c0.14,0.15,0.42,0.22,0.84,0.22h2.75c0.23,0,0.4-0.08,0.52-0.25c0.12-0.17,0.18-0.36,0.18-0.56
		c0-0.11,0.05-0.2,0.14-0.27c0.1-0.07,0.21-0.11,0.34-0.11c0.14,0,0.25,0.04,0.34,0.12c0.09,0.08,0.13,0.2,0.13,0.35
		c0,0.13-0.02,0.32-0.07,0.57c-0.05,0.25-0.07,0.45-0.07,0.61c0,0.24,0.03,0.49,0.09,0.76c0.06,0.26,0.09,0.43,0.09,0.48
		c0,0.15-0.05,0.27-0.15,0.36c-0.1,0.09-0.22,0.14-0.36,0.14c-0.14,0-0.26-0.06-0.36-0.18c-0.1-0.12-0.14-0.28-0.14-0.48
		c0-0.24-0.07-0.41-0.21-0.51c-0.14-0.1-0.37-0.15-0.68-0.15h-2.73c-0.25,0-0.45,0.05-0.61,0.14c-0.16,0.09-0.24,0.23-0.24,0.4v6.06
		c0,0.32,0.09,0.53,0.26,0.64c0.18,0.11,0.48,0.16,0.9,0.16H310.52z"/>
</g>
<g>
	<path d="M168.59,59.03c0.38,0,0.62,0.06,0.71,0.17s0.16,0.34,0.21,0.7c0.05,0.35,0.1,0.69,0.16,1.01c0.05,0.32,0.08,0.58,0.08,0.78
		c0,0.63-0.24,0.95-0.73,0.95c-0.12,0-0.23-0.05-0.33-0.17c-0.1-0.11-0.24-0.41-0.4-0.9c-0.16-0.49-0.33-0.8-0.49-0.95
		c-0.16-0.15-0.34-0.22-0.54-0.22h-4.06c-0.7,0-1.16,0.1-1.38,0.31c-0.22,0.21-0.33,0.51-0.33,0.92v3.33c0,0.71,0.09,1.21,0.28,1.5
		c0.19,0.29,0.64,0.44,1.37,0.44h3.95c0.32,0,0.56-0.14,0.73-0.42c0.17-0.28,0.25-0.6,0.25-0.97c0-0.18,0.05-0.32,0.16-0.43
		c0.11-0.11,0.24-0.16,0.4-0.16c0.17,0,0.31,0.07,0.43,0.2c0.12,0.13,0.18,0.31,0.18,0.54c0,0.22-0.01,0.54-0.04,0.96
		s-0.04,0.76-0.04,1.02c0,0.4,0.02,0.82,0.07,1.26c0.05,0.44,0.07,0.71,0.07,0.81c0,0.23-0.06,0.42-0.17,0.56
		c-0.11,0.14-0.25,0.21-0.42,0.21c-0.18,0-0.33-0.09-0.45-0.28c-0.12-0.18-0.19-0.44-0.19-0.75c0-0.76-0.43-1.14-1.28-1.14h-3.93
		c-0.49,0-0.83,0.08-0.99,0.24c-0.17,0.16-0.25,0.39-0.25,0.7v9.43c0,0.41,0.1,0.77,0.29,1.08c0.19,0.31,0.59,0.56,1.18,0.74
		c0.6,0.18,0.96,0.35,1.08,0.51c0.12,0.15,0.19,0.33,0.19,0.54c0,0.36-0.2,0.55-0.61,0.55c-0.2,0-0.57-0.08-1.13-0.25
		c-0.56-0.16-1.1-0.25-1.63-0.25c-0.94,0-1.7,0.09-2.3,0.26c-0.6,0.17-0.99,0.26-1.17,0.26c-0.61,0-0.92-0.27-0.92-0.82
		c0-0.14,0.05-0.26,0.16-0.37c0.1-0.11,0.42-0.23,0.94-0.36c0.52-0.13,0.87-0.32,1.04-0.56c0.17-0.24,0.26-0.53,0.26-0.85V64.73
		c0-1.46-0.03-2.47-0.1-3.03c-0.06-0.55-0.19-0.9-0.39-1.04c-0.2-0.14-0.56-0.21-1.08-0.21c-0.36,0-0.63-0.07-0.82-0.2
		c-0.19-0.13-0.29-0.3-0.29-0.5c0-0.19,0.08-0.36,0.25-0.5c0.17-0.14,0.38-0.21,0.64-0.21H168.59z"/>
	<path d="M175.39,64.22c0-0.7-0.52-1.08-1.56-1.14c-0.72-0.04-1.08-0.25-1.08-0.64c0-0.41,0.41-0.62,1.23-0.62
		c0.39,0,0.82,0.03,1.29,0.1c0.47,0.06,0.87,0.1,1.2,0.1c0.22,0,0.83-0.06,1.83-0.19c1-0.13,1.77-0.19,2.31-0.19
		c2.06,0,3.74,0.49,5.03,1.47s1.93,2.25,1.93,3.81c0,1-0.32,1.82-0.96,2.47c-0.64,0.65-1.73,1.25-3.29,1.81
		c-0.29,0.1-0.44,0.21-0.44,0.32c0,0.07,0.06,0.19,0.18,0.36c0.55,0.72,1.59,2.28,3.12,4.67c1.53,2.39,2.34,3.65,2.44,3.75
		c0.1,0.11,0.37,0.23,0.8,0.36c0.43,0.13,0.71,0.27,0.82,0.4c0.12,0.13,0.17,0.28,0.17,0.45c0,0.21-0.15,0.39-0.45,0.54
		c-0.3,0.15-0.54,0.23-0.72,0.23c-0.46,0-1.02-0.16-1.69-0.49c-0.66-0.33-1.1-0.61-1.31-0.84c-0.39-0.46-1.67-2.34-3.84-5.64
		c-1.01-1.54-1.6-2.41-1.75-2.6c-0.54-0.72-1.07-1.18-1.6-1.38c-0.13-0.05-0.22-0.1-0.26-0.15c-0.04-0.05-0.06-0.16-0.06-0.33
		c0-0.4,0.26-0.6,0.78-0.6c0.05,0,0.19,0.02,0.42,0.05c0.23,0.03,0.46,0.05,0.68,0.05c1.1,0,2.02-0.33,2.76-0.98
		c0.74-0.66,1.11-1.57,1.11-2.75c0-0.83-0.42-1.66-1.25-2.48c-0.83-0.82-1.99-1.23-3.46-1.23c-0.55,0-0.96,0.06-1.21,0.17
		c-0.26,0.12-0.42,0.26-0.48,0.43c-0.07,0.17-0.1,0.4-0.1,0.67V79.7c0,0.31,0.14,0.55,0.43,0.74c0.29,0.19,0.66,0.28,1.13,0.28
		c0.5,0,0.84,0.06,1.01,0.18c0.17,0.12,0.26,0.29,0.26,0.52c0,0.22-0.11,0.4-0.32,0.55c-0.22,0.15-0.54,0.22-0.97,0.22
		c-0.39,0-0.87-0.1-1.43-0.31c-0.57-0.21-1.01-0.31-1.34-0.31c-0.28,0-0.7,0.1-1.26,0.3c-0.56,0.2-1,0.3-1.32,0.3
		c-0.92,0-1.38-0.26-1.38-0.79c0-0.2,0.07-0.35,0.22-0.45c0.15-0.1,0.52-0.14,1.12-0.14c0.36,0,0.65-0.07,0.88-0.22
		s0.34-0.33,0.34-0.54V64.22z"/>
	<path d="M205.82,80.83c0.51,0,0.9-0.12,1.17-0.37c0.27-0.25,0.4-0.56,0.4-0.95c0-0.35,0.09-0.63,0.26-0.83
		c0.17-0.21,0.37-0.31,0.6-0.31c0.23,0,0.42,0.1,0.58,0.29c0.16,0.19,0.23,0.45,0.23,0.78c0,0.32,0.02,0.67,0.05,1.05
		c0.03,0.37,0.05,0.63,0.05,0.77c0,0.38-0.06,0.62-0.17,0.74c-0.12,0.12-0.41,0.17-0.9,0.17h-12.17c-0.85,0-1.44-0.06-1.75-0.18
		c-0.32-0.12-0.47-0.3-0.47-0.53c0-0.37,0.29-0.56,0.86-0.56c0.73,0,1.21-0.11,1.43-0.33c0.22-0.22,0.33-0.56,0.33-1.03V66.87
		c0-1.37-0.03-2.27-0.08-2.71c-0.05-0.44-0.18-0.73-0.38-0.85c-0.2-0.12-0.6-0.19-1.2-0.19c-0.36,0-0.64-0.06-0.83-0.19
		c-0.2-0.13-0.29-0.29-0.29-0.48c0-0.18,0.09-0.33,0.26-0.47c0.17-0.14,0.39-0.2,0.65-0.2h11.59c0.46,0,0.76,0.09,0.9,0.26
		c0.14,0.18,0.24,0.43,0.31,0.78c0.07,0.34,0.1,0.9,0.1,1.69c0,0.36-0.17,0.54-0.5,0.54c-0.19,0-0.36-0.05-0.5-0.16
		c-0.15-0.11-0.31-0.38-0.48-0.81c-0.18-0.43-0.36-0.71-0.54-0.83c-0.19-0.12-0.4-0.18-0.64-0.18h-4.13c-0.69,0-1.13,0.09-1.31,0.27
		s-0.27,0.45-0.27,0.81v2.93c0,0.68,0.1,1.14,0.3,1.35c0.2,0.22,0.61,0.33,1.22,0.33h4.01c0.33,0,0.58-0.12,0.75-0.37
		c0.17-0.24,0.26-0.52,0.26-0.82c0-0.16,0.07-0.29,0.21-0.39c0.14-0.11,0.31-0.16,0.5-0.16c0.2,0,0.37,0.06,0.5,0.18
		c0.13,0.12,0.2,0.29,0.2,0.51c0,0.19-0.03,0.47-0.1,0.83c-0.07,0.36-0.1,0.66-0.1,0.89c0,0.35,0.04,0.72,0.13,1.1
		c0.09,0.39,0.13,0.62,0.13,0.7c0,0.21-0.08,0.39-0.23,0.52c-0.15,0.14-0.33,0.21-0.53,0.21c-0.21,0-0.39-0.09-0.53-0.26
		c-0.14-0.17-0.21-0.4-0.21-0.7c0-0.35-0.1-0.6-0.3-0.75c-0.2-0.15-0.53-0.22-1-0.22h-3.98c-0.36,0-0.66,0.07-0.89,0.2
		c-0.23,0.13-0.35,0.33-0.35,0.59v8.85c0,0.46,0.13,0.77,0.38,0.93c0.26,0.16,0.7,0.24,1.32,0.24H205.82z"/>
	<path d="M228.71,64.47c0-0.38-0.14-0.68-0.43-0.91c-0.29-0.23-0.65-0.34-1.09-0.34c-0.34,0-0.62-0.05-0.83-0.16
		s-0.32-0.25-0.32-0.42c0-0.21,0.1-0.38,0.29-0.5c0.2-0.12,0.41-0.18,0.64-0.18c0.12,0,0.53,0.06,1.22,0.17s1.16,0.17,1.39,0.17
		c0.3,0,0.7-0.04,1.19-0.12c0.5-0.08,0.85-0.12,1.07-0.12c0.6,0,0.9,0.22,0.9,0.66c0,0.36-0.3,0.53-0.9,0.53
		c-0.52,0-0.91,0.07-1.15,0.22c-0.25,0.15-0.4,0.33-0.45,0.53c-0.06,0.21-0.08,0.47-0.08,0.8V78.6c0,0.92,0.11,1.63,0.33,2.13
		s0.33,0.9,0.33,1.21c0,0.29-0.13,0.43-0.4,0.43c-0.19,0-0.33-0.04-0.43-0.11c-0.1-0.08-0.25-0.24-0.45-0.5l-12.54-15.24
		c-0.13-0.16-0.25-0.24-0.36-0.24c-0.15,0-0.23,0.18-0.23,0.52v12.77c0,0.39,0.18,0.69,0.53,0.92c0.36,0.23,0.69,0.34,1.02,0.34
		c0.8,0,1.2,0.24,1.2,0.73c0,0.15-0.05,0.27-0.14,0.36c-0.09,0.09-0.3,0.14-0.63,0.14c-0.32,0-0.8-0.04-1.44-0.12
		c-0.64-0.08-1.06-0.12-1.25-0.12c-0.26,0-0.7,0.04-1.32,0.12c-0.62,0.08-1.01,0.12-1.17,0.12c-0.51,0-0.77-0.22-0.77-0.66
		c0-0.36,0.3-0.55,0.9-0.55c0.49,0,0.89-0.13,1.18-0.38c0.3-0.25,0.44-0.61,0.44-1.08V64.69c0-0.45-0.13-0.81-0.38-1.08
		c-0.25-0.27-0.57-0.4-0.95-0.4c-0.51,0-0.86-0.05-1.03-0.15c-0.18-0.1-0.26-0.26-0.26-0.48c0-0.38,0.26-0.57,0.77-0.57
		c0.09,0,0.31,0.03,0.67,0.08c0.36,0.05,0.66,0.08,0.9,0.08c0.18,0,0.39-0.03,0.64-0.08c0.25-0.05,0.45-0.08,0.62-0.08
		c0.29,0,0.65,0.22,1.07,0.65c0.43,0.43,1.89,2.18,4.38,5.24l6.65,8.16c0.11,0.14,0.22,0.21,0.32,0.21c0.22,0,0.33-0.25,0.33-0.75
		V64.47z"/>
	<path d="M255.79,77.66c0.15,0,0.28,0.05,0.4,0.16c0.11,0.11,0.17,0.2,0.17,0.28c0,0.32-0.4,0.84-1.21,1.54
		c-0.81,0.71-1.86,1.31-3.17,1.81c-1.3,0.5-2.68,0.75-4.14,0.75c-2.35,0-4.39-0.47-6.12-1.41c-1.73-0.94-3.06-2.25-3.98-3.93
		c-0.92-1.68-1.38-3.42-1.38-5.23c0-1.81,0.45-3.5,1.35-5.09c0.9-1.58,2.19-2.82,3.85-3.7c1.66-0.89,3.6-1.33,5.79-1.33
		c1.4,0,2.7,0.17,3.89,0.51c1.19,0.34,2.13,0.75,2.81,1.23c0.69,0.48,1.03,0.84,1.03,1.09c0,0.39-0.01,0.74-0.03,1.05
		c-0.02,0.31-0.03,0.5-0.03,0.57c0,0.11,0.04,0.28,0.11,0.51c0.07,0.23,0.11,0.44,0.11,0.63c0,0.3-0.21,0.46-0.62,0.46
		c-0.13,0-0.26-0.06-0.39-0.17c-0.13-0.11-0.32-0.42-0.57-0.93c-0.53-1.08-1.1-1.87-1.72-2.36c-1.07-0.86-2.58-1.29-4.5-1.29
		c-2.48,0-4.41,0.83-5.79,2.49c-1.38,1.66-2.07,3.8-2.07,6.43c0,2.86,0.75,5.11,2.24,6.77c1.49,1.66,3.51,2.49,6.05,2.49
		c0.65,0,1.68-0.2,3.08-0.6c1.4-0.4,2.78-1.18,4.15-2.34C255.4,77.79,255.63,77.66,255.79,77.66z"/>
	<path d="M264.99,79.41c0,0.29,0.08,0.54,0.25,0.77c0.17,0.23,0.5,0.42,1.02,0.57c0.51,0.15,0.82,0.28,0.93,0.4
		c0.11,0.11,0.16,0.24,0.16,0.39c0,0.13-0.11,0.26-0.32,0.38c-0.21,0.12-0.48,0.18-0.8,0.18c-0.25,0-0.66-0.04-1.24-0.13
		c-0.58-0.09-0.96-0.13-1.16-0.13c-0.3,0-0.71,0.04-1.24,0.12c-0.53,0.08-0.9,0.12-1.12,0.12c-0.72,0-1.08-0.2-1.08-0.6
		c0-0.23,0.06-0.39,0.18-0.46c0.12-0.07,0.35-0.14,0.68-0.19c0.33-0.05,0.6-0.17,0.82-0.36c0.22-0.19,0.32-0.6,0.32-1.22V64.68
		c0-0.31-0.08-0.6-0.23-0.85c-0.15-0.25-0.47-0.44-0.97-0.57c-0.5-0.12-0.8-0.25-0.9-0.37c-0.1-0.12-0.15-0.27-0.15-0.43
		c0-0.11,0.08-0.22,0.23-0.33c0.15-0.11,0.33-0.16,0.54-0.16c0.39,0,0.87,0.04,1.43,0.12c0.56,0.08,1.01,0.12,1.34,0.12
		c0.34,0,0.76-0.03,1.25-0.1c0.5-0.07,0.97-0.1,1.42-0.1c0.48,0,0.72,0.18,0.72,0.55c0,0.23-0.06,0.39-0.19,0.47
		c-0.13,0.08-0.36,0.15-0.7,0.22c-0.34,0.07-0.62,0.21-0.85,0.41c-0.23,0.21-0.34,0.62-0.34,1.25V79.41z M277.86,79.41
		c0,0.31,0.08,0.59,0.26,0.84c0.17,0.25,0.51,0.44,1.02,0.57c0.51,0.13,0.82,0.25,0.92,0.35c0.1,0.1,0.15,0.23,0.15,0.38
		c0,0.13-0.11,0.26-0.32,0.38c-0.21,0.12-0.48,0.18-0.8,0.18c-0.25,0-0.66-0.04-1.24-0.13c-0.58-0.09-0.96-0.13-1.16-0.13
		c-0.3,0-0.71,0.04-1.24,0.12c-0.53,0.08-0.9,0.12-1.12,0.12c-0.72,0-1.08-0.2-1.08-0.6c0-0.23,0.06-0.39,0.19-0.46
		c0.13-0.07,0.36-0.14,0.7-0.19c0.34-0.05,0.62-0.17,0.84-0.36c0.22-0.19,0.33-0.6,0.33-1.23v-8.32c0-0.3-0.1-0.53-0.29-0.69
		c-0.2-0.17-0.64-0.25-1.34-0.25h-6.61c-0.56,0-0.92-0.05-1.08-0.16c-0.16-0.11-0.23-0.27-0.23-0.49c0-0.22,0.1-0.38,0.31-0.48
		c0.21-0.1,0.58-0.15,1.12-0.15h7.14c0.39,0,0.64-0.06,0.75-0.17c0.11-0.11,0.17-0.33,0.17-0.66c0-2.03-0.03-3.27-0.08-3.69
		c-0.06-0.43-0.47-0.74-1.26-0.93c-0.41-0.11-0.66-0.23-0.76-0.35c-0.1-0.12-0.14-0.27-0.14-0.43c0-0.11,0.08-0.22,0.23-0.33
		c0.15-0.11,0.33-0.16,0.54-0.16c0.39,0,0.87,0.04,1.43,0.12c0.56,0.08,1.01,0.12,1.34,0.12c0.34,0,0.76-0.03,1.25-0.1
		c0.5-0.07,0.97-0.1,1.42-0.1c0.48,0,0.72,0.18,0.72,0.55c0,0.23-0.06,0.39-0.18,0.46c-0.12,0.07-0.35,0.14-0.69,0.2
		c-0.34,0.06-0.63,0.19-0.86,0.39c-0.23,0.21-0.35,0.64-0.35,1.31V79.41z"/>
	<path d="M303.86,67.98c-0.18,0.26-0.27,0.46-0.27,0.57c0,0.08,0.04,0.18,0.12,0.3l7.61,10.95c0.24,0.27,0.5,0.47,0.79,0.6
		c0.29,0.13,0.53,0.19,0.72,0.19c0.2,0,0.37,0.06,0.53,0.18c0.16,0.12,0.24,0.27,0.24,0.45c0,0.29-0.12,0.51-0.36,0.67
		s-0.55,0.24-0.91,0.24c-0.77,0-1.61-0.32-2.53-0.96c-0.91-0.64-1.74-1.49-2.48-2.54l-5.29-7.46c-0.11-0.15-0.19-0.22-0.24-0.22
		c-0.05,0-0.12,0.06-0.21,0.19l-1.93,2.63c-0.08,0.12-0.12,0.26-0.12,0.43v5.21c0,0.29,0.07,0.53,0.21,0.74
		c0.14,0.21,0.45,0.36,0.91,0.46c0.46,0.09,0.74,0.2,0.84,0.31c0.09,0.11,0.14,0.26,0.14,0.42c0,0.19-0.12,0.36-0.37,0.51
		c-0.25,0.15-0.61,0.23-1.09,0.23c-0.23,0-0.55-0.05-0.96-0.15c-0.41-0.1-0.78-0.15-1.09-0.15c-0.43,0-0.91,0.06-1.44,0.18
		c-0.53,0.12-0.91,0.18-1.16,0.18c-0.24,0-0.46-0.08-0.68-0.23c-0.22-0.15-0.33-0.35-0.33-0.6c0-0.18,0.05-0.33,0.15-0.45
		c0.1-0.12,0.42-0.2,0.96-0.25c0.54-0.05,0.9-0.24,1.07-0.57c0.17-0.33,0.25-0.72,0.25-1.15V62.31c0-0.41-0.08-0.78-0.24-1.09
		c-0.16-0.32-0.51-0.51-1.04-0.57c-0.53-0.06-0.84-0.15-0.94-0.28c-0.1-0.12-0.15-0.27-0.15-0.45c0-0.18,0.11-0.36,0.33-0.56
		c0.22-0.19,0.51-0.29,0.89-0.29c0.37,0,0.83,0.06,1.38,0.17c0.55,0.12,1.01,0.17,1.38,0.17c0.24,0,0.54-0.06,0.91-0.19
		c0.37-0.13,0.79-0.19,1.26-0.19c0.38,0,0.7,0.08,0.94,0.23c0.24,0.15,0.36,0.33,0.36,0.54c0,0.16-0.06,0.29-0.18,0.42
		c-0.12,0.12-0.39,0.24-0.83,0.36c-0.43,0.12-0.74,0.23-0.91,0.32c-0.17,0.09-0.31,0.26-0.41,0.51c-0.1,0.25-0.16,0.63-0.16,1.14
		v8.57l0.04,0.32l0.21-0.22l6.57-9.26c0.33-0.43,0.49-0.75,0.49-0.95c0-0.13-0.05-0.23-0.16-0.31c-0.1-0.08-0.37-0.14-0.79-0.18
		c-0.42-0.04-0.7-0.12-0.83-0.24c-0.13-0.12-0.19-0.27-0.19-0.46c0-0.24,0.11-0.43,0.32-0.58c0.21-0.15,0.47-0.22,0.76-0.22
		c0.27,0,0.61,0.04,1.03,0.13c0.42,0.08,0.69,0.13,0.82,0.13c0.18,0,0.5-0.05,0.97-0.14c0.47-0.1,0.83-0.14,1.08-0.14
		c0.27,0,0.48,0.08,0.65,0.23c0.17,0.16,0.25,0.35,0.25,0.59c0,0.14-0.04,0.25-0.13,0.34c-0.08,0.09-0.41,0.23-0.97,0.41
		c-0.56,0.18-1,0.49-1.3,0.94L303.86,67.98z"/>
	<path d="M319.32,64.8c0-0.53-0.11-0.9-0.34-1.1c-0.23-0.2-0.52-0.34-0.87-0.44c-0.36-0.1-0.6-0.19-0.74-0.29
		c-0.14-0.09-0.2-0.26-0.2-0.5c0-0.14,0.07-0.26,0.2-0.35c0.13-0.09,0.29-0.14,0.47-0.14c0.31,0,0.78,0.05,1.41,0.14
		c0.63,0.09,1.11,0.14,1.44,0.14c0.3,0,0.74-0.04,1.33-0.12c0.59-0.08,1.02-0.12,1.31-0.12c0.5,0,0.75,0.19,0.75,0.57
		c0,0.23-0.07,0.39-0.2,0.48c-0.13,0.08-0.4,0.16-0.8,0.23c-0.4,0.07-0.69,0.26-0.87,0.58c-0.18,0.32-0.27,0.78-0.27,1.39v14.32
		c0,0.27,0.07,0.5,0.2,0.71c0.14,0.21,0.44,0.37,0.9,0.48c0.47,0.12,0.75,0.24,0.85,0.36c0.1,0.13,0.15,0.27,0.15,0.44
		c0,0.34-0.31,0.5-0.93,0.5c-0.28,0-0.69-0.04-1.23-0.13c-0.54-0.09-0.95-0.13-1.23-0.13c-0.26,0-0.66,0.03-1.19,0.1
		c-0.54,0.07-0.94,0.1-1.21,0.1c-0.75,0-1.13-0.22-1.13-0.66c0-0.12,0.04-0.23,0.12-0.32c0.08-0.09,0.36-0.18,0.85-0.26
		c0.49-0.08,0.81-0.28,0.97-0.59c0.16-0.32,0.24-0.67,0.24-1.07V64.8z"/>
	<path d="M340.56,61.83c0.34,0,0.62,0.33,0.83,0.98c0.21,0.66,0.32,1.26,0.32,1.83s-0.2,0.84-0.59,0.84c-0.14,0-0.27-0.04-0.39-0.12
		c-0.12-0.08-0.28-0.37-0.48-0.87c-0.2-0.5-0.51-0.84-0.91-1.02c-0.4-0.18-0.85-0.27-1.33-0.27c-0.68,0-1.17,0.15-1.48,0.44
		c-0.31,0.29-0.46,0.76-0.46,1.42v14.67c0,0.22,0.07,0.42,0.22,0.59c0.15,0.17,0.45,0.32,0.91,0.44c0.46,0.12,0.74,0.23,0.84,0.33
		c0.1,0.09,0.15,0.2,0.15,0.32c0,0.49-0.28,0.73-0.83,0.73c-0.3,0-0.74-0.04-1.32-0.12c-0.58-0.08-1.01-0.12-1.29-0.12
		c-0.26,0-0.64,0.03-1.14,0.1s-0.88,0.1-1.14,0.1c-0.31,0-0.58-0.07-0.8-0.2c-0.22-0.13-0.33-0.31-0.33-0.55
		c0-0.11,0.04-0.21,0.12-0.3c0.08-0.09,0.35-0.19,0.8-0.32c0.45-0.12,0.75-0.32,0.91-0.57c0.16-0.26,0.23-0.55,0.23-0.87V64.46
		c0-0.89-0.65-1.34-1.96-1.34c-0.85,0-1.45,0.18-1.81,0.53c-0.22,0.2-0.38,0.52-0.48,0.94c-0.1,0.42-0.2,0.67-0.31,0.75
		c-0.11,0.08-0.24,0.12-0.39,0.12c-0.16,0-0.32-0.04-0.46-0.12c-0.15-0.08-0.22-0.18-0.22-0.3c0-1.01,0.09-1.79,0.29-2.36
		c0.19-0.57,0.47-0.85,0.83-0.85H340.56z"/>
	<path d="M364.61,77.66c0.15,0,0.28,0.05,0.4,0.16c0.11,0.11,0.17,0.2,0.17,0.28c0,0.32-0.4,0.84-1.21,1.54
		c-0.81,0.71-1.86,1.31-3.17,1.81c-1.3,0.5-2.68,0.75-4.14,0.75c-2.35,0-4.39-0.47-6.12-1.41c-1.73-0.94-3.06-2.25-3.98-3.93
		c-0.92-1.68-1.38-3.42-1.38-5.23c0-1.81,0.45-3.5,1.35-5.09s2.19-2.82,3.85-3.7c1.66-0.89,3.6-1.33,5.79-1.33
		c1.4,0,2.7,0.17,3.89,0.51c1.19,0.34,2.13,0.75,2.81,1.23c0.69,0.48,1.03,0.84,1.03,1.09c0,0.39-0.01,0.74-0.03,1.05
		c-0.02,0.31-0.03,0.5-0.03,0.57c0,0.11,0.04,0.28,0.11,0.51c0.07,0.23,0.11,0.44,0.11,0.63c0,0.3-0.21,0.46-0.62,0.46
		c-0.13,0-0.26-0.06-0.39-0.17c-0.13-0.11-0.32-0.42-0.57-0.93c-0.53-1.08-1.1-1.87-1.72-2.36c-1.07-0.86-2.58-1.29-4.5-1.29
		c-2.48,0-4.41,0.83-5.79,2.49c-1.38,1.66-2.07,3.8-2.07,6.43c0,2.86,0.75,5.11,2.24,6.77c1.49,1.66,3.51,2.49,6.05,2.49
		c0.65,0,1.68-0.2,3.08-0.6c1.4-0.4,2.78-1.18,4.15-2.34C364.21,77.79,364.44,77.66,364.61,77.66z"/>
	<path d="M373.8,79.41c0,0.29,0.08,0.54,0.25,0.77c0.17,0.23,0.5,0.42,1.02,0.57c0.51,0.15,0.82,0.28,0.93,0.4
		c0.11,0.11,0.16,0.24,0.16,0.39c0,0.13-0.11,0.26-0.32,0.38c-0.21,0.12-0.48,0.18-0.8,0.18c-0.25,0-0.66-0.04-1.24-0.13
		c-0.58-0.09-0.96-0.13-1.16-0.13c-0.3,0-0.71,0.04-1.24,0.12c-0.53,0.08-0.9,0.12-1.12,0.12c-0.72,0-1.08-0.2-1.08-0.6
		c0-0.23,0.06-0.39,0.18-0.46c0.12-0.07,0.35-0.14,0.68-0.19c0.33-0.05,0.6-0.17,0.82-0.36c0.22-0.19,0.32-0.6,0.32-1.22V64.68
		c0-0.31-0.08-0.6-0.23-0.85c-0.15-0.25-0.47-0.44-0.97-0.57c-0.5-0.12-0.8-0.25-0.9-0.37c-0.1-0.12-0.15-0.27-0.15-0.43
		c0-0.11,0.08-0.22,0.23-0.33c0.15-0.11,0.33-0.16,0.54-0.16c0.39,0,0.87,0.04,1.43,0.12c0.56,0.08,1.01,0.12,1.34,0.12
		c0.34,0,0.76-0.03,1.25-0.1c0.5-0.07,0.97-0.1,1.42-0.1c0.48,0,0.72,0.18,0.72,0.55c0,0.23-0.06,0.39-0.19,0.47
		c-0.13,0.08-0.36,0.15-0.7,0.22c-0.34,0.07-0.62,0.21-0.85,0.41c-0.23,0.21-0.34,0.62-0.34,1.25V79.41z M386.67,79.41
		c0,0.31,0.08,0.59,0.26,0.84c0.17,0.25,0.51,0.44,1.02,0.57c0.51,0.13,0.82,0.25,0.92,0.35c0.1,0.1,0.15,0.23,0.15,0.38
		c0,0.13-0.11,0.26-0.32,0.38c-0.21,0.12-0.48,0.18-0.8,0.18c-0.25,0-0.66-0.04-1.24-0.13c-0.58-0.09-0.96-0.13-1.16-0.13
		c-0.3,0-0.71,0.04-1.24,0.12c-0.53,0.08-0.9,0.12-1.12,0.12c-0.72,0-1.08-0.2-1.08-0.6c0-0.23,0.06-0.39,0.19-0.46
		c0.13-0.07,0.36-0.14,0.7-0.19c0.34-0.05,0.62-0.17,0.84-0.36c0.22-0.19,0.33-0.6,0.33-1.23v-8.32c0-0.3-0.1-0.53-0.29-0.69
		c-0.2-0.17-0.64-0.25-1.34-0.25h-6.61c-0.56,0-0.92-0.05-1.08-0.16c-0.16-0.11-0.23-0.27-0.23-0.49c0-0.22,0.1-0.38,0.31-0.48
		c0.21-0.1,0.58-0.15,1.12-0.15h7.14c0.39,0,0.64-0.06,0.75-0.17c0.11-0.11,0.17-0.33,0.17-0.66c0-2.03-0.03-3.27-0.08-3.69
		c-0.06-0.43-0.47-0.74-1.26-0.93c-0.41-0.11-0.66-0.23-0.76-0.35c-0.1-0.12-0.14-0.27-0.14-0.43c0-0.11,0.08-0.22,0.23-0.33
		c0.15-0.11,0.33-0.16,0.54-0.16c0.39,0,0.87,0.04,1.43,0.12c0.56,0.08,1.01,0.12,1.34,0.12c0.34,0,0.76-0.03,1.25-0.1
		c0.5-0.07,0.97-0.1,1.42-0.1c0.48,0,0.72,0.18,0.72,0.55c0,0.23-0.06,0.39-0.18,0.46c-0.12,0.07-0.35,0.14-0.69,0.2
		c-0.34,0.06-0.63,0.19-0.86,0.39c-0.23,0.21-0.35,0.64-0.35,1.31V79.41z"/>
	<path d="M404.96,80.83c0.51,0,0.9-0.12,1.17-0.37c0.27-0.25,0.4-0.56,0.4-0.95c0-0.35,0.09-0.63,0.26-0.83
		c0.17-0.21,0.37-0.31,0.6-0.31c0.23,0,0.42,0.1,0.58,0.29c0.16,0.19,0.23,0.45,0.23,0.78c0,0.32,0.01,0.67,0.05,1.05
		c0.03,0.37,0.04,0.63,0.04,0.77c0,0.38-0.06,0.62-0.17,0.74c-0.12,0.12-0.41,0.17-0.9,0.17h-12.17c-0.85,0-1.44-0.06-1.75-0.18
		c-0.32-0.12-0.47-0.3-0.47-0.53c0-0.37,0.29-0.56,0.86-0.56c0.73,0,1.21-0.11,1.43-0.33c0.22-0.22,0.33-0.56,0.33-1.03V66.87
		c0-1.37-0.03-2.27-0.08-2.71c-0.05-0.44-0.18-0.73-0.38-0.85c-0.2-0.12-0.6-0.19-1.2-0.19c-0.36,0-0.64-0.06-0.83-0.19
		c-0.2-0.13-0.29-0.29-0.29-0.48c0-0.18,0.08-0.33,0.26-0.47c0.17-0.14,0.39-0.2,0.65-0.2h11.59c0.46,0,0.76,0.09,0.9,0.26
		c0.14,0.18,0.24,0.43,0.31,0.78c0.07,0.34,0.1,0.9,0.1,1.69c0,0.36-0.17,0.54-0.5,0.54c-0.19,0-0.36-0.05-0.5-0.16
		c-0.15-0.11-0.31-0.38-0.48-0.81c-0.18-0.43-0.36-0.71-0.54-0.83c-0.19-0.12-0.4-0.18-0.64-0.18h-4.13c-0.69,0-1.13,0.09-1.31,0.27
		c-0.18,0.18-0.27,0.45-0.27,0.81v2.93c0,0.68,0.1,1.14,0.3,1.35c0.2,0.22,0.61,0.33,1.22,0.33h4.01c0.33,0,0.58-0.12,0.75-0.37
		c0.17-0.24,0.26-0.52,0.26-0.82c0-0.16,0.07-0.29,0.21-0.39c0.14-0.11,0.31-0.16,0.5-0.16c0.2,0,0.37,0.06,0.5,0.18
		c0.13,0.12,0.2,0.29,0.2,0.51c0,0.19-0.03,0.47-0.1,0.83c-0.07,0.36-0.1,0.66-0.1,0.89c0,0.35,0.04,0.72,0.13,1.1
		c0.08,0.39,0.13,0.62,0.13,0.7c0,0.21-0.08,0.39-0.23,0.52c-0.15,0.14-0.33,0.21-0.53,0.21c-0.21,0-0.39-0.09-0.53-0.26
		c-0.14-0.17-0.21-0.4-0.21-0.7c0-0.35-0.1-0.6-0.3-0.75c-0.2-0.15-0.53-0.22-1-0.22h-3.98c-0.36,0-0.66,0.07-0.89,0.2
		c-0.23,0.13-0.35,0.33-0.35,0.59v8.85c0,0.46,0.13,0.77,0.38,0.93c0.26,0.16,0.7,0.24,1.32,0.24H404.96z"/>
	<path d="M427.84,64.47c0-0.38-0.14-0.68-0.43-0.91c-0.29-0.23-0.65-0.34-1.09-0.34c-0.34,0-0.62-0.05-0.83-0.16
		c-0.21-0.11-0.32-0.25-0.32-0.42c0-0.21,0.1-0.38,0.29-0.5c0.2-0.12,0.41-0.18,0.64-0.18c0.12,0,0.53,0.06,1.22,0.17
		c0.7,0.11,1.16,0.17,1.39,0.17c0.3,0,0.7-0.04,1.19-0.12c0.5-0.08,0.85-0.12,1.07-0.12c0.6,0,0.9,0.22,0.9,0.66
		c0,0.36-0.3,0.53-0.9,0.53c-0.52,0-0.91,0.07-1.15,0.22c-0.25,0.15-0.4,0.33-0.45,0.53c-0.06,0.21-0.08,0.47-0.08,0.8V78.6
		c0,0.92,0.11,1.63,0.33,2.13c0.22,0.5,0.33,0.9,0.33,1.21c0,0.29-0.13,0.43-0.4,0.43c-0.19,0-0.33-0.04-0.43-0.11
		c-0.1-0.08-0.25-0.24-0.45-0.5l-12.54-15.24c-0.13-0.16-0.25-0.24-0.36-0.24c-0.15,0-0.23,0.18-0.23,0.52v12.77
		c0,0.39,0.18,0.69,0.53,0.92c0.36,0.23,0.69,0.34,1.02,0.34c0.8,0,1.2,0.24,1.2,0.73c0,0.15-0.05,0.27-0.14,0.36
		c-0.09,0.09-0.3,0.14-0.63,0.14c-0.32,0-0.8-0.04-1.44-0.12c-0.64-0.08-1.06-0.12-1.25-0.12c-0.26,0-0.7,0.04-1.32,0.12
		c-0.62,0.08-1.01,0.12-1.17,0.12c-0.51,0-0.77-0.22-0.77-0.66c0-0.36,0.3-0.55,0.9-0.55c0.49,0,0.89-0.13,1.18-0.38
		c0.3-0.25,0.44-0.61,0.44-1.08V64.69c0-0.45-0.13-0.81-0.38-1.08c-0.25-0.27-0.57-0.4-0.95-0.4c-0.51,0-0.86-0.05-1.03-0.15
		c-0.18-0.1-0.26-0.26-0.26-0.48c0-0.38,0.25-0.57,0.76-0.57c0.09,0,0.31,0.03,0.67,0.08c0.36,0.05,0.66,0.08,0.9,0.08
		c0.18,0,0.39-0.03,0.64-0.08c0.24-0.05,0.45-0.08,0.62-0.08c0.29,0,0.65,0.22,1.07,0.65c0.43,0.43,1.89,2.18,4.38,5.24l6.65,8.16
		c0.11,0.14,0.22,0.21,0.32,0.21c0.22,0,0.33-0.25,0.33-0.75V64.47z"/>
</g>
<g>
	<path d="M224.27,100.99l0.45-0.1l-0.51,1.72c-0.2,0.68-0.4,1.47-0.58,2.36c-0.1,0.48-0.15,0.8-0.15,0.94s0.06,0.21,0.17,0.21
		c0.07,0,0.19-0.05,0.35-0.14c0.28-0.17,0.55-0.38,0.81-0.62l0.22,0.26c-0.52,0.47-0.85,0.76-0.99,0.86
		c-0.29,0.2-0.57,0.35-0.83,0.44c-0.17,0.06-0.34,0.1-0.5,0.1c-0.12,0-0.21-0.03-0.26-0.08c-0.06-0.05-0.09-0.13-0.09-0.24
		c0-0.07,0.02-0.16,0.05-0.28l0.27-0.92c-0.39,0.47-0.85,0.87-1.39,1.2c-0.33,0.21-0.63,0.31-0.91,0.31c-0.26,0-0.46-0.09-0.6-0.28
		c-0.19-0.25-0.29-0.57-0.29-0.98c0-0.48,0.13-1.01,0.38-1.6c0.26-0.59,0.6-1.12,1.03-1.6c0.43-0.48,0.88-0.83,1.36-1.06
		c0.37-0.17,0.84-0.26,1.41-0.26c0.14,0,0.29,0.01,0.44,0.03L224.27,100.99z M223.43,102.03c-0.24-0.05-0.45-0.07-0.62-0.07
		c-0.41,0-0.76,0.11-1.07,0.34c-0.3,0.22-0.58,0.63-0.84,1.21c-0.26,0.58-0.39,1.16-0.39,1.74c0,0.31,0.05,0.53,0.16,0.67
		s0.24,0.2,0.41,0.2c0.31,0,0.65-0.17,1-0.51c0.36-0.34,0.62-0.82,0.79-1.46L223.43,102.03z"/>
	<path d="M231.99,102.29c0.37-0.4,0.73-0.7,1.08-0.89c0.36-0.19,0.67-0.28,0.94-0.28c0.32,0,0.57,0.13,0.76,0.38
		c0.19,0.25,0.29,0.64,0.29,1.15c0,0.74-0.17,1.47-0.52,2.18c-0.35,0.71-0.78,1.25-1.29,1.62c-0.51,0.37-1.01,0.56-1.5,0.56
		c-0.42,0-0.75-0.12-1-0.37s-0.37-0.56-0.37-0.95c0-0.31,0.06-0.75,0.18-1.3l0.8-3.59c0.19-0.88,0.44-1.55,0.73-2.01
		c0.29-0.46,0.68-0.83,1.16-1.1c0.48-0.27,0.93-0.41,1.36-0.41c0.26,0,0.45,0.04,0.57,0.13s0.18,0.21,0.18,0.36
		c0,0.14-0.05,0.25-0.16,0.34c-0.11,0.09-0.26,0.14-0.46,0.14c-0.15,0-0.41-0.03-0.77-0.1c-0.16-0.03-0.31-0.05-0.43-0.05
		c-0.23,0-0.41,0.12-0.55,0.37c-0.1,0.19-0.25,0.67-0.43,1.45L231.99,102.29z M233.32,101.88c-0.22,0-0.49,0.13-0.79,0.4
		c-0.31,0.27-0.59,0.74-0.87,1.41s-0.41,1.34-0.41,1.99c0,0.24,0.08,0.45,0.23,0.61c0.16,0.17,0.34,0.25,0.55,0.25
		c0.5,0,0.95-0.4,1.34-1.19s0.59-1.58,0.59-2.37c0-0.36-0.07-0.65-0.22-0.88C233.65,101.96,233.5,101.88,233.32,101.88z"/>
	<path d="M237.71,106.81h-1.01l0.48-1.83c0.23-0.9,0.43-1.75,0.6-2.55c0.04-0.2,0.06-0.32,0.06-0.37c0-0.11-0.05-0.16-0.15-0.16
		c-0.07,0-0.17,0.05-0.31,0.14c-0.14,0.09-0.39,0.32-0.76,0.69l-0.21-0.24c0.43-0.47,0.87-0.82,1.3-1.05
		c0.43-0.23,0.76-0.35,0.99-0.35c0.08,0,0.15,0.02,0.19,0.06c0.05,0.04,0.07,0.09,0.07,0.15c0,0.06-0.03,0.22-0.09,0.47l-0.3,1.22
		c0.46-0.72,0.97-1.34,1.55-1.85c0.28-0.25,0.51-0.37,0.69-0.37c0.14,0,0.25,0.04,0.34,0.13c0.09,0.09,0.14,0.19,0.14,0.31
		c0,0.12-0.04,0.23-0.13,0.31c-0.09,0.09-0.31,0.19-0.66,0.31c-0.33,0.11-0.61,0.25-0.82,0.41c-0.21,0.16-0.44,0.4-0.69,0.73
		c-0.25,0.33-0.43,0.61-0.53,0.85c-0.1,0.24-0.25,0.8-0.46,1.69L237.71,106.81z"/>
	<path d="M245.94,100.99l0.45-0.1l-0.51,1.72c-0.2,0.68-0.4,1.47-0.58,2.36c-0.1,0.48-0.15,0.8-0.15,0.94s0.06,0.21,0.17,0.21
		c0.07,0,0.19-0.05,0.35-0.14c0.28-0.17,0.55-0.38,0.81-0.62l0.22,0.26c-0.52,0.47-0.85,0.76-0.99,0.86
		c-0.29,0.2-0.57,0.35-0.83,0.44c-0.17,0.06-0.34,0.1-0.5,0.1c-0.12,0-0.21-0.03-0.26-0.08c-0.06-0.05-0.09-0.13-0.09-0.24
		c0-0.07,0.02-0.16,0.05-0.28l0.27-0.92c-0.39,0.47-0.85,0.87-1.39,1.2c-0.33,0.21-0.63,0.31-0.91,0.31c-0.26,0-0.46-0.09-0.6-0.28
		c-0.19-0.25-0.29-0.57-0.29-0.98c0-0.48,0.13-1.01,0.38-1.6c0.26-0.59,0.6-1.12,1.03-1.6c0.43-0.48,0.88-0.83,1.36-1.06
		c0.37-0.17,0.84-0.26,1.41-0.26c0.14,0,0.29,0.01,0.44,0.03L245.94,100.99z M245.1,102.03c-0.24-0.05-0.45-0.07-0.62-0.07
		c-0.41,0-0.76,0.11-1.07,0.34s-0.58,0.63-0.84,1.21c-0.26,0.58-0.39,1.16-0.39,1.74c0,0.31,0.05,0.53,0.16,0.67s0.24,0.2,0.41,0.2
		c0.31,0,0.65-0.17,1-0.51c0.36-0.34,0.62-0.82,0.79-1.46L245.1,102.03z"/>
	<path d="M250.82,101.11c0.4,0,0.71,0.08,0.93,0.23s0.33,0.34,0.33,0.54c0,0.12-0.05,0.23-0.14,0.32c-0.09,0.09-0.2,0.14-0.34,0.14
		c-0.09,0-0.16-0.02-0.22-0.06c-0.06-0.04-0.15-0.13-0.27-0.29c-0.22-0.29-0.44-0.44-0.66-0.44c-0.19,0-0.35,0.07-0.49,0.21
		c-0.14,0.14-0.21,0.32-0.21,0.53c0,0.19,0.05,0.37,0.14,0.54c0.09,0.17,0.32,0.46,0.69,0.84c0.5,0.53,0.75,1.04,0.75,1.52
		s-0.2,0.9-0.61,1.26c-0.41,0.36-0.93,0.54-1.57,0.54c-0.54,0-0.94-0.11-1.2-0.33c-0.26-0.22-0.39-0.49-0.39-0.81
		c0-0.16,0.05-0.29,0.15-0.39c0.1-0.1,0.22-0.16,0.37-0.16c0.13,0,0.24,0.04,0.33,0.13c0.09,0.08,0.14,0.18,0.14,0.3
		c0,0.05,0,0.1-0.01,0.18c0,0.06,0,0.11,0,0.15c0,0.15,0.06,0.28,0.19,0.38c0.12,0.1,0.29,0.16,0.5,0.16c0.24,0,0.46-0.04,0.64-0.13
		s0.33-0.21,0.43-0.38c0.1-0.17,0.16-0.34,0.16-0.5c0-0.16-0.05-0.33-0.15-0.49c-0.1-0.16-0.32-0.43-0.65-0.81
		c-0.47-0.52-0.71-1.03-0.71-1.51c0-0.44,0.18-0.83,0.54-1.16C249.82,101.27,250.27,101.11,250.82,101.11z"/>
	<path d="M255.96,101.11c0.4,0,0.71,0.08,0.93,0.23s0.33,0.34,0.33,0.54c0,0.12-0.05,0.23-0.14,0.32s-0.2,0.14-0.34,0.14
		c-0.09,0-0.16-0.02-0.22-0.06c-0.06-0.04-0.15-0.13-0.27-0.29c-0.22-0.29-0.44-0.44-0.66-0.44c-0.19,0-0.35,0.07-0.49,0.21
		s-0.21,0.32-0.21,0.53c0,0.19,0.05,0.37,0.14,0.54c0.09,0.17,0.32,0.46,0.69,0.84c0.5,0.53,0.75,1.04,0.75,1.52s-0.2,0.9-0.61,1.26
		c-0.41,0.36-0.93,0.54-1.57,0.54c-0.54,0-0.94-0.11-1.2-0.33c-0.26-0.22-0.39-0.49-0.39-0.81c0-0.16,0.05-0.29,0.15-0.39
		c0.1-0.1,0.22-0.16,0.37-0.16c0.13,0,0.24,0.04,0.33,0.13c0.09,0.08,0.14,0.18,0.14,0.3c0,0.05,0,0.1-0.01,0.18
		c0,0.06,0,0.11,0,0.15c0,0.15,0.06,0.28,0.19,0.38c0.12,0.1,0.29,0.16,0.5,0.16c0.24,0,0.46-0.04,0.64-0.13
		c0.18-0.08,0.33-0.21,0.43-0.38c0.1-0.17,0.16-0.34,0.16-0.5c0-0.16-0.05-0.33-0.15-0.49c-0.1-0.16-0.32-0.43-0.65-0.81
		c-0.47-0.52-0.71-1.03-0.71-1.51c0-0.44,0.18-0.83,0.54-1.16C254.96,101.27,255.41,101.11,255.96,101.11z"/>
	<path d="M261.68,105.11l0.22,0.3c-1.11,1.05-2.06,1.58-2.85,1.58c-0.32,0-0.57-0.11-0.74-0.33c-0.17-0.22-0.25-0.57-0.25-1.05
		c0-0.97,0.29-1.93,0.88-2.89c0.66-1.09,1.45-1.64,2.37-1.64c0.32,0,0.57,0.08,0.74,0.24c0.17,0.16,0.25,0.38,0.25,0.66
		c0,0.29-0.1,0.58-0.31,0.87s-0.57,0.58-1.09,0.89c-0.26,0.15-0.82,0.42-1.68,0.81c-0.04,0.24-0.06,0.48-0.06,0.7
		c0,0.32,0.05,0.55,0.15,0.67c0.1,0.13,0.25,0.19,0.44,0.19c0.19,0,0.39-0.05,0.61-0.16C260.67,105.83,261.11,105.54,261.68,105.11z
		 M259.31,104.13c0.73-0.33,1.28-0.68,1.64-1.05c0.25-0.26,0.37-0.52,0.37-0.78c0-0.19-0.05-0.35-0.15-0.46
		c-0.1-0.12-0.23-0.17-0.4-0.17c-0.17,0-0.33,0.06-0.49,0.19c-0.21,0.17-0.39,0.42-0.54,0.76
		C259.54,103.1,259.39,103.61,259.31,104.13z"/>
	<path d="M264.8,106.81h-1.01l0.48-1.83c0.23-0.9,0.43-1.75,0.6-2.55c0.04-0.2,0.06-0.32,0.06-0.37c0-0.11-0.05-0.16-0.15-0.16
		c-0.07,0-0.17,0.05-0.31,0.14c-0.14,0.09-0.39,0.32-0.76,0.69l-0.21-0.24c0.43-0.47,0.87-0.82,1.3-1.05
		c0.43-0.23,0.76-0.35,0.99-0.35c0.08,0,0.15,0.02,0.19,0.06c0.05,0.04,0.07,0.09,0.07,0.15c0,0.06-0.03,0.22-0.09,0.47l-0.3,1.22
		c0.46-0.72,0.97-1.34,1.55-1.85c0.28-0.25,0.51-0.37,0.69-0.37c0.14,0,0.25,0.04,0.34,0.13c0.09,0.09,0.14,0.19,0.14,0.31
		c0,0.12-0.04,0.23-0.13,0.31s-0.31,0.19-0.66,0.31c-0.33,0.11-0.61,0.25-0.82,0.41c-0.21,0.16-0.44,0.4-0.69,0.73
		c-0.25,0.33-0.43,0.61-0.53,0.85c-0.1,0.24-0.25,0.8-0.46,1.69L264.8,106.81z"/>
	<path d="M268.62,102.68l-0.3-0.23c0.45-0.5,0.86-0.85,1.24-1.06c0.37-0.21,0.69-0.32,0.95-0.32c0.14,0,0.26,0.03,0.33,0.1
		c0.08,0.06,0.12,0.15,0.12,0.26c0,0.13-0.15,0.69-0.44,1.67c-0.48,1.61-0.72,2.57-0.72,2.9c0,0.06,0.02,0.12,0.05,0.16
		s0.07,0.06,0.1,0.06c0.14,0,0.52-0.28,1.11-0.84l0.26,0.26c-0.62,0.58-1.07,0.96-1.36,1.12c-0.29,0.16-0.52,0.24-0.7,0.24
		c-0.16,0-0.28-0.05-0.38-0.15s-0.14-0.24-0.14-0.41c0-0.57,0.34-1.95,1.02-4.15c0.03-0.1,0.05-0.2,0.05-0.28
		c0-0.09-0.04-0.14-0.12-0.14c-0.09,0-0.19,0.04-0.31,0.11C269.28,102.06,269.02,102.29,268.62,102.68z M271.29,98.19
		c0.14,0,0.26,0.05,0.35,0.14c0.09,0.09,0.14,0.21,0.14,0.36c0,0.2-0.07,0.37-0.21,0.53c-0.14,0.15-0.29,0.23-0.46,0.23
		c-0.14,0-0.25-0.05-0.34-0.14c-0.09-0.1-0.14-0.22-0.14-0.37c0-0.2,0.07-0.38,0.2-0.52C270.95,98.26,271.11,98.19,271.29,98.19z"/>
	<path d="M275.99,105.11l0.22,0.3c-1.11,1.05-2.06,1.58-2.85,1.58c-0.32,0-0.57-0.11-0.74-0.33c-0.17-0.22-0.25-0.57-0.25-1.05
		c0-0.97,0.29-1.93,0.88-2.89c0.66-1.09,1.45-1.64,2.37-1.64c0.32,0,0.57,0.08,0.74,0.24c0.17,0.16,0.25,0.38,0.25,0.66
		c0,0.29-0.1,0.58-0.31,0.87s-0.57,0.58-1.09,0.89c-0.26,0.15-0.82,0.42-1.68,0.81c-0.04,0.24-0.06,0.48-0.06,0.7
		c0,0.32,0.05,0.55,0.15,0.67c0.1,0.13,0.25,0.19,0.44,0.19c0.19,0,0.39-0.05,0.61-0.16C274.98,105.83,275.41,105.54,275.99,105.11z
		 M273.61,104.13c0.73-0.33,1.28-0.68,1.64-1.05c0.25-0.26,0.37-0.52,0.37-0.78c0-0.19-0.05-0.35-0.15-0.46
		c-0.1-0.12-0.23-0.17-0.4-0.17c-0.17,0-0.33,0.06-0.49,0.19c-0.21,0.17-0.39,0.42-0.54,0.76
		C273.84,103.1,273.7,103.61,273.61,104.13z"/>
	<path d="M277.98,103.69h3.15l-0.16,0.67h-3.16L277.98,103.69z"/>
	<path d="M285.41,101.11c0.4,0,0.71,0.08,0.93,0.23c0.22,0.16,0.33,0.34,0.33,0.54c0,0.12-0.05,0.23-0.14,0.32s-0.2,0.14-0.34,0.14
		c-0.09,0-0.16-0.02-0.22-0.06c-0.06-0.04-0.15-0.13-0.27-0.29c-0.22-0.29-0.44-0.44-0.66-0.44c-0.19,0-0.35,0.07-0.49,0.21
		c-0.14,0.14-0.21,0.32-0.21,0.53c0,0.19,0.05,0.37,0.14,0.54c0.09,0.17,0.32,0.46,0.69,0.84c0.5,0.53,0.75,1.04,0.75,1.52
		s-0.2,0.9-0.61,1.26c-0.41,0.36-0.93,0.54-1.57,0.54c-0.54,0-0.94-0.11-1.2-0.33c-0.26-0.22-0.39-0.49-0.39-0.81
		c0-0.16,0.05-0.29,0.15-0.39c0.1-0.1,0.22-0.16,0.37-0.16c0.13,0,0.24,0.04,0.33,0.13c0.09,0.08,0.14,0.18,0.14,0.3
		c0,0.05,0,0.1-0.01,0.18c0,0.06,0,0.11,0,0.15c0,0.15,0.06,0.28,0.19,0.38c0.12,0.1,0.29,0.16,0.5,0.16c0.24,0,0.46-0.04,0.64-0.13
		s0.33-0.21,0.43-0.38c0.1-0.17,0.16-0.34,0.16-0.5c0-0.16-0.05-0.33-0.15-0.49c-0.1-0.16-0.32-0.43-0.65-0.81
		c-0.47-0.52-0.71-1.03-0.71-1.51c0-0.44,0.18-0.83,0.54-1.16C284.4,101.27,284.86,101.11,285.41,101.11z"/>
	<path d="M289.47,100.06l1.08-0.41l-0.49,1.9h1.41l-0.11,0.48h-1.41l-0.59,2.27c-0.19,0.68-0.28,1.16-0.28,1.42
		c0,0.12,0.03,0.21,0.08,0.26c0.05,0.05,0.12,0.08,0.21,0.08c0.14,0,0.36-0.08,0.64-0.25c0.38-0.22,0.74-0.47,1.09-0.75l0.26,0.31
		c-0.99,0.75-1.65,1.2-1.99,1.37c-0.33,0.17-0.6,0.25-0.81,0.25c-0.17,0-0.3-0.06-0.4-0.18s-0.15-0.32-0.15-0.6
		c0-0.33,0.09-0.82,0.26-1.49l0.69-2.7h-1.1l0.12-0.48h1.1L289.47,100.06z"/>
	<path d="M292.69,102.49l-0.22-0.32l0.5-0.34c0.49-0.33,0.83-0.55,1.03-0.64c0.11-0.05,0.22-0.08,0.31-0.08s0.19,0.05,0.27,0.16
		c0.4,0.5,0.73,1.18,1,2.03c0.27,0.85,0.41,1.68,0.41,2.48c0,0.1,0,0.26-0.01,0.47c0.76-1.41,1.15-2.53,1.15-3.35
		c0-0.17-0.04-0.4-0.12-0.69c-0.08-0.32-0.12-0.54-0.12-0.68c0-0.13,0.04-0.24,0.13-0.33c0.08-0.09,0.19-0.13,0.32-0.13
		c0.16,0,0.29,0.06,0.38,0.18c0.1,0.12,0.15,0.3,0.15,0.52c0,0.58-0.13,1.31-0.4,2.18c-0.27,0.87-0.69,1.81-1.26,2.81
		c-0.57,1-1.09,1.75-1.57,2.23c-0.47,0.49-0.93,0.83-1.37,1.05c-0.44,0.21-0.86,0.32-1.25,0.32c-0.3,0-0.52-0.06-0.68-0.17
		c-0.15-0.11-0.23-0.24-0.23-0.4c0-0.14,0.06-0.25,0.18-0.35c0.12-0.1,0.28-0.15,0.48-0.15c0.15,0,0.36,0.03,0.63,0.09
		c0.29,0.06,0.48,0.1,0.58,0.1c0.28,0,0.57-0.12,0.88-0.35c0.42-0.32,0.75-0.69,1-1.13c0.25-0.44,0.37-0.88,0.37-1.33
		c0-0.63-0.09-1.38-0.27-2.26c-0.18-0.88-0.44-1.55-0.78-2.02c-0.17-0.24-0.35-0.36-0.54-0.36
		C293.42,102.04,293.1,102.19,292.69,102.49z"/>
	<path d="M301.79,105.18l0.23,0.24c-0.35,0.4-0.77,0.76-1.25,1.09c-0.48,0.33-0.88,0.49-1.19,0.49c-0.14,0-0.26-0.05-0.35-0.16
		c-0.09-0.11-0.14-0.25-0.14-0.44c0-0.36,0.14-1.11,0.42-2.25l0.73-2.98c0.27-1.08,0.49-1.8,0.67-2.16
		c0.28-0.55,0.68-0.98,1.19-1.29c0.51-0.31,1.05-0.46,1.62-0.46c0.19,0,0.35,0.05,0.46,0.14s0.17,0.21,0.17,0.34
		c0,0.15-0.05,0.27-0.16,0.36c-0.11,0.09-0.27,0.14-0.47,0.14c-0.14,0-0.33-0.02-0.57-0.07c-0.22-0.04-0.42-0.05-0.6-0.05
		s-0.32,0.04-0.42,0.11c-0.13,0.11-0.25,0.34-0.35,0.68c-0.11,0.35-0.28,1.03-0.52,2.05l-0.68,2.84c-0.33,1.43-0.5,2.17-0.5,2.23
		c0,0.14,0.05,0.22,0.16,0.22c0.1,0,0.24-0.06,0.43-0.18C301.04,105.85,301.41,105.54,301.79,105.18z"/>
	<path d="M306.55,105.11l0.22,0.3c-1.11,1.05-2.06,1.58-2.85,1.58c-0.32,0-0.57-0.11-0.74-0.33c-0.17-0.22-0.25-0.57-0.25-1.05
		c0-0.97,0.29-1.93,0.88-2.89c0.66-1.09,1.45-1.64,2.37-1.64c0.32,0,0.57,0.08,0.74,0.24s0.25,0.38,0.25,0.66
		c0,0.29-0.1,0.58-0.31,0.87s-0.57,0.58-1.09,0.89c-0.26,0.15-0.82,0.42-1.68,0.81c-0.04,0.24-0.06,0.48-0.06,0.7
		c0,0.32,0.05,0.55,0.15,0.67c0.1,0.13,0.25,0.19,0.44,0.19c0.19,0,0.39-0.05,0.61-0.16C305.54,105.83,305.97,105.54,306.55,105.11z
		 M304.17,104.13c0.73-0.33,1.28-0.68,1.64-1.05c0.25-0.26,0.37-0.52,0.37-0.78c0-0.19-0.05-0.35-0.15-0.46
		c-0.1-0.12-0.23-0.17-0.4-0.17c-0.17,0-0.33,0.06-0.49,0.19c-0.21,0.17-0.39,0.42-0.54,0.76
		C304.4,103.1,304.26,103.61,304.17,104.13z"/>
	<path d="M313.41,106.81h-1.01l0.48-1.83c0.23-0.9,0.43-1.75,0.6-2.55c0.04-0.2,0.06-0.32,0.06-0.37c0-0.11-0.05-0.16-0.15-0.16
		c-0.07,0-0.17,0.05-0.31,0.14c-0.14,0.09-0.39,0.32-0.76,0.69l-0.21-0.24c0.43-0.47,0.87-0.82,1.3-1.05
		c0.43-0.23,0.76-0.35,0.99-0.35c0.08,0,0.15,0.02,0.19,0.06c0.05,0.04,0.07,0.09,0.07,0.15c0,0.06-0.03,0.22-0.09,0.47l-0.3,1.22
		c0.46-0.72,0.97-1.34,1.55-1.85c0.28-0.25,0.51-0.37,0.69-0.37c0.14,0,0.25,0.04,0.34,0.13c0.09,0.09,0.14,0.19,0.14,0.31
		c0,0.12-0.04,0.23-0.13,0.31c-0.09,0.09-0.31,0.19-0.66,0.31c-0.33,0.11-0.61,0.25-0.82,0.41c-0.21,0.16-0.44,0.4-0.69,0.73
		c-0.25,0.33-0.43,0.61-0.53,0.85c-0.1,0.24-0.25,0.8-0.46,1.69L313.41,106.81z"/>
	<path d="M320.58,105.11l0.22,0.3c-1.11,1.05-2.06,1.58-2.85,1.58c-0.32,0-0.57-0.11-0.74-0.33c-0.17-0.22-0.25-0.57-0.25-1.05
		c0-0.97,0.29-1.93,0.88-2.89c0.66-1.09,1.45-1.64,2.37-1.64c0.32,0,0.57,0.08,0.74,0.24s0.25,0.38,0.25,0.66
		c0,0.29-0.1,0.58-0.31,0.87s-0.57,0.58-1.09,0.89c-0.26,0.15-0.82,0.42-1.68,0.81c-0.04,0.24-0.06,0.48-0.06,0.7
		c0,0.32,0.05,0.55,0.15,0.67c0.1,0.13,0.25,0.19,0.44,0.19c0.19,0,0.39-0.05,0.61-0.16C319.56,105.83,320,105.54,320.58,105.11z
		 M318.2,104.13c0.73-0.33,1.28-0.68,1.64-1.05c0.25-0.26,0.37-0.52,0.37-0.78c0-0.19-0.05-0.35-0.15-0.46
		c-0.1-0.12-0.23-0.17-0.4-0.17c-0.17,0-0.33,0.06-0.49,0.19c-0.21,0.17-0.39,0.42-0.54,0.76
		C318.43,103.1,318.29,103.61,318.2,104.13z"/>
	<path d="M325.42,101.11c0.4,0,0.71,0.08,0.93,0.23c0.22,0.16,0.33,0.34,0.33,0.54c0,0.12-0.05,0.23-0.14,0.32
		c-0.09,0.09-0.2,0.14-0.34,0.14c-0.09,0-0.16-0.02-0.22-0.06c-0.06-0.04-0.15-0.13-0.27-0.29c-0.22-0.29-0.44-0.44-0.66-0.44
		c-0.19,0-0.35,0.07-0.49,0.21s-0.21,0.32-0.21,0.53c0,0.19,0.04,0.37,0.14,0.54c0.09,0.17,0.32,0.46,0.69,0.84
		c0.5,0.53,0.75,1.04,0.75,1.52s-0.2,0.9-0.61,1.26c-0.41,0.36-0.93,0.54-1.57,0.54c-0.54,0-0.94-0.11-1.2-0.33
		c-0.26-0.22-0.39-0.49-0.39-0.81c0-0.16,0.05-0.29,0.15-0.39c0.1-0.1,0.22-0.16,0.37-0.16c0.13,0,0.23,0.04,0.33,0.13
		c0.09,0.08,0.14,0.18,0.14,0.3c0,0.05,0,0.1-0.01,0.18c0,0.06,0,0.11,0,0.15c0,0.15,0.06,0.28,0.19,0.38
		c0.12,0.1,0.29,0.16,0.5,0.16c0.24,0,0.46-0.04,0.64-0.13s0.33-0.21,0.43-0.38c0.1-0.17,0.16-0.34,0.16-0.5
		c0-0.16-0.05-0.33-0.15-0.49c-0.1-0.16-0.32-0.43-0.65-0.81c-0.47-0.52-0.71-1.03-0.71-1.51c0-0.44,0.18-0.83,0.54-1.16
		C324.41,101.27,324.86,101.11,325.42,101.11z"/>
	<path d="M329.48,100.06l1.08-0.41l-0.49,1.9h1.41l-0.11,0.48h-1.41l-0.59,2.27c-0.19,0.68-0.28,1.16-0.28,1.42
		c0,0.12,0.03,0.21,0.08,0.26c0.05,0.05,0.12,0.08,0.21,0.08c0.14,0,0.35-0.08,0.64-0.25c0.38-0.22,0.74-0.47,1.09-0.75l0.26,0.31
		c-0.99,0.75-1.65,1.2-1.99,1.37c-0.33,0.17-0.6,0.25-0.81,0.25c-0.17,0-0.3-0.06-0.4-0.18c-0.1-0.12-0.15-0.32-0.15-0.6
		c0-0.33,0.09-0.82,0.26-1.49l0.69-2.7h-1.1l0.12-0.48h1.1L329.48,100.06z"/>
	<path d="M337.34,100.99l0.45-0.1l-0.51,1.72c-0.2,0.68-0.4,1.47-0.58,2.36c-0.1,0.48-0.15,0.8-0.15,0.94s0.06,0.21,0.17,0.21
		c0.07,0,0.19-0.05,0.35-0.14c0.28-0.17,0.55-0.38,0.81-0.62l0.22,0.26c-0.52,0.47-0.85,0.76-0.99,0.86
		c-0.29,0.2-0.57,0.35-0.83,0.44c-0.17,0.06-0.34,0.1-0.5,0.1c-0.12,0-0.21-0.03-0.26-0.08c-0.06-0.05-0.09-0.13-0.09-0.24
		c0-0.07,0.02-0.16,0.05-0.28l0.27-0.92c-0.39,0.47-0.85,0.87-1.39,1.2c-0.33,0.21-0.63,0.31-0.91,0.31c-0.26,0-0.46-0.09-0.6-0.28
		c-0.19-0.25-0.29-0.57-0.29-0.98c0-0.48,0.13-1.01,0.38-1.6c0.26-0.59,0.6-1.12,1.03-1.6s0.88-0.83,1.36-1.06
		c0.37-0.17,0.84-0.26,1.41-0.26c0.14,0,0.29,0.01,0.44,0.03L337.34,100.99z M336.5,102.03c-0.24-0.05-0.45-0.07-0.62-0.07
		c-0.41,0-0.76,0.11-1.07,0.34s-0.58,0.63-0.84,1.21c-0.26,0.58-0.39,1.16-0.39,1.74c0,0.31,0.05,0.53,0.16,0.67
		c0.1,0.14,0.24,0.2,0.41,0.2c0.31,0,0.65-0.17,1-0.51s0.62-0.82,0.79-1.46L336.5,102.03z"/>
	<path d="M343.83,101.28h0.97l-0.64,2.37c-0.38,1.38-0.56,2.16-0.56,2.35c0,0.09,0.02,0.15,0.06,0.2c0.04,0.05,0.09,0.07,0.14,0.07
		c0.08,0,0.17-0.03,0.27-0.1c0.15-0.1,0.43-0.37,0.85-0.79l0.22,0.25c-0.91,0.95-1.58,1.42-2.01,1.42c-0.14,0-0.27-0.06-0.37-0.17
		c-0.1-0.11-0.15-0.27-0.15-0.47c0-0.24,0.05-0.55,0.15-0.94c-0.4,0.46-0.9,0.87-1.49,1.21c-0.39,0.23-0.73,0.35-1.02,0.35
		c-0.16,0-0.28-0.05-0.37-0.16s-0.14-0.27-0.14-0.5c0-0.18,0.02-0.37,0.06-0.57c0.06-0.29,0.21-0.86,0.45-1.72
		c0.3-1.09,0.45-1.75,0.45-1.96c0-0.13-0.05-0.19-0.14-0.19c-0.08,0-0.19,0.04-0.33,0.13s-0.38,0.29-0.72,0.61l-0.3-0.24
		c0.61-0.54,1.07-0.9,1.39-1.07c0.32-0.17,0.58-0.25,0.77-0.25c0.11,0,0.2,0.04,0.26,0.12c0.07,0.08,0.1,0.2,0.1,0.37
		c0,0.31-0.16,1.08-0.49,2.3c-0.29,1.1-0.43,1.73-0.43,1.88c0,0.1,0.03,0.18,0.09,0.24c0.06,0.07,0.13,0.1,0.2,0.1
		c0.25,0,0.61-0.21,1.08-0.63c0.47-0.42,0.77-0.89,0.92-1.43L343.83,101.28z"/>
	<path d="M347.59,106.81h-1.01l0.48-1.83c0.23-0.9,0.43-1.75,0.6-2.55c0.04-0.2,0.06-0.32,0.06-0.37c0-0.11-0.05-0.16-0.15-0.16
		c-0.07,0-0.17,0.05-0.31,0.14c-0.14,0.09-0.39,0.32-0.76,0.69l-0.21-0.24c0.43-0.47,0.87-0.82,1.3-1.05
		c0.43-0.23,0.76-0.35,0.99-0.35c0.08,0,0.15,0.02,0.19,0.06c0.05,0.04,0.07,0.09,0.07,0.15c0,0.06-0.03,0.22-0.09,0.47l-0.29,1.22
		c0.46-0.72,0.97-1.34,1.55-1.85c0.28-0.25,0.51-0.37,0.69-0.37c0.14,0,0.25,0.04,0.34,0.13c0.09,0.09,0.14,0.19,0.14,0.31
		c0,0.12-0.04,0.23-0.13,0.31s-0.31,0.19-0.66,0.31c-0.33,0.11-0.61,0.25-0.82,0.41c-0.21,0.16-0.44,0.4-0.69,0.73
		c-0.25,0.33-0.43,0.61-0.53,0.85s-0.25,0.8-0.46,1.69L347.59,106.81z"/>
	<path d="M355.82,100.99l0.45-0.1l-0.51,1.72c-0.2,0.68-0.4,1.47-0.58,2.36c-0.1,0.48-0.15,0.8-0.15,0.94s0.06,0.21,0.17,0.21
		c0.07,0,0.19-0.05,0.35-0.14c0.28-0.17,0.55-0.38,0.81-0.62l0.22,0.26c-0.52,0.47-0.85,0.76-0.99,0.86
		c-0.29,0.2-0.57,0.35-0.83,0.44c-0.17,0.06-0.34,0.1-0.5,0.1c-0.12,0-0.21-0.03-0.26-0.08c-0.06-0.05-0.09-0.13-0.09-0.24
		c0-0.07,0.02-0.16,0.05-0.28l0.27-0.92c-0.39,0.47-0.85,0.87-1.39,1.2c-0.33,0.21-0.63,0.31-0.91,0.31c-0.26,0-0.46-0.09-0.6-0.28
		c-0.19-0.25-0.29-0.57-0.29-0.98c0-0.48,0.13-1.01,0.38-1.6c0.26-0.59,0.6-1.12,1.03-1.6c0.43-0.48,0.88-0.83,1.36-1.06
		c0.37-0.17,0.84-0.26,1.41-0.26c0.14,0,0.29,0.01,0.44,0.03L355.82,100.99z M354.98,102.03c-0.24-0.05-0.45-0.07-0.62-0.07
		c-0.41,0-0.76,0.11-1.07,0.34s-0.58,0.63-0.84,1.21c-0.26,0.58-0.39,1.16-0.39,1.74c0,0.31,0.05,0.53,0.16,0.67
		c0.1,0.14,0.24,0.2,0.41,0.2c0.31,0,0.65-0.17,1-0.51s0.62-0.82,0.79-1.46L354.98,102.03z"/>
	<path d="M357.93,102.7l-0.23-0.24c0.58-0.55,1.04-0.92,1.39-1.1c0.34-0.18,0.64-0.27,0.88-0.27c0.1,0,0.17,0.02,0.22,0.06
		c0.05,0.04,0.08,0.09,0.08,0.14c0,0.04-0.01,0.11-0.03,0.22l-0.31,1.37c0.46-0.51,1.04-0.99,1.73-1.43
		c0.37-0.23,0.68-0.35,0.92-0.35c0.18,0,0.31,0.06,0.41,0.17c0.1,0.11,0.15,0.28,0.15,0.49c0,0.14-0.02,0.3-0.06,0.48
		c-0.07,0.29-0.26,0.93-0.57,1.92c-0.29,0.92-0.43,1.54-0.43,1.84c0,0.09,0.01,0.16,0.04,0.21c0.03,0.05,0.07,0.07,0.12,0.07
		c0.13,0,0.34-0.13,0.62-0.38c0.2-0.18,0.4-0.35,0.6-0.5l0.17,0.24c-0.42,0.46-0.85,0.83-1.3,1.11c-0.29,0.18-0.52,0.27-0.71,0.27
		c-0.17,0-0.31-0.06-0.4-0.19s-0.14-0.33-0.14-0.61c0-0.4,0.25-1.4,0.75-3.01c0.15-0.57,0.23-0.9,0.23-1c0-0.14-0.08-0.21-0.25-0.21
		c-0.18,0-0.41,0.1-0.7,0.29c-0.43,0.28-0.78,0.61-1.07,0.99c-0.18,0.24-0.33,0.63-0.45,1.17l-0.55,2.37h-1.01
		c0.19-0.68,0.35-1.33,0.5-1.95l0.6-2.58c0.02-0.1,0.03-0.18,0.03-0.22c0-0.12-0.05-0.18-0.14-0.18c-0.07,0-0.18,0.05-0.31,0.14
		C358.44,102.2,358.17,102.43,357.93,102.7z"/>
	<path d="M366.71,100.06l1.08-0.41l-0.49,1.9h1.41l-0.11,0.48h-1.41l-0.59,2.27c-0.19,0.68-0.28,1.16-0.28,1.42
		c0,0.12,0.03,0.21,0.08,0.26c0.05,0.05,0.12,0.08,0.21,0.08c0.14,0,0.35-0.08,0.64-0.25c0.38-0.22,0.74-0.47,1.09-0.75l0.26,0.31
		c-0.99,0.75-1.65,1.2-1.99,1.37c-0.33,0.17-0.6,0.25-0.81,0.25c-0.17,0-0.3-0.06-0.4-0.18c-0.1-0.12-0.15-0.32-0.15-0.6
		c0-0.33,0.09-0.82,0.26-1.49l0.69-2.7h-1.1l0.12-0.48h1.1L366.71,100.06z"/>
</g>
<line class="st1" x1="187.45" y1="90.67" x2="400.74" y2="90.67"/>
</svg>
